<?xml version="1.0" standalone="no"?>
<!DOCTYPE svg PUBLIC "-//W3C//DTD SVG 1.1//EN" "http://www.w3.org/Graphics/SVG/1.1/DTD/svg11.dtd" >
<svg>
<metadata>
Created by FontForge 20090914 at Thu Jun 17 21:13:08 2021
 By www-data
(C) 2001 BRIDGEco. by Jin Hashiba
</metadata>
<defs>
<font id="Teacher_A" horiz-adv-x="512" >
  <font-face 
    font-family="Teacher_A"
    font-weight="400"
    font-stretch="normal"
    units-per-em="1024"
    panose-1="2 11 6 0 0 0 0 0 0 0"
    ascent="880"
    descent="-144"
    x-height="695"
    cap-height="804"
    bbox="39.998 -122 749 804.286"
    underline-thickness="48"
    underline-position="-72"
    unicode-range="U+0020-U+2219"
  />
<missing-glyph 
d="M206 400v100h100v-100h-100z" />
    <glyph glyph-name=".notdef" 
d="M206 400v100h100v-100h-100z" />
    <glyph glyph-name="space" unicode=" " horiz-adv-x="320" 
 />
    <glyph glyph-name="exclam" unicode="!" horiz-adv-x="251" 
d="M125 804c23.333 0 43.5 -8.5 60.5 -25.5s25.5 -37.167 25.5 -60.5v-432c0 -24 -8.5 -44.167 -25.5 -60.5s-37.167 -24.5 -60.5 -24.5c-24 0 -44.167 8.16699 -60.5 24.5s-24.5 36.5 -24.5 60.5v432c0 23.333 8.16699 43.5 24.5 60.5s36.5 25.5 60.5 25.5zM40 72
c0 23.333 8.16699 43.5 24.5 60.5s36.5 25.5 60.5 25.5c23.333 0 43.5 -8.5 60.5 -25.5s25.5 -37.167 25.5 -60.5c0 -24 -8.5 -44.167 -25.5 -60.5s-37.167 -24.5 -60.5 -24.5c-24 0 -44.167 8.16699 -60.5 24.5s-24.5 36.5 -24.5 60.5z" />
    <glyph glyph-name="quotedbl" unicode="&#x22;" horiz-adv-x="461" 
d="M125 525c-24 0 -44.167 8.5 -60.5 25.5s-24.5 37.167 -24.5 60.5v108c0 24 8.16699 44.167 24.5 60.5s36.5 24.5 60.5 24.5c23.333 0 43.5 -8.16699 60.5 -24.5s25.5 -36.5 25.5 -60.5v-108c0 -23.333 -8.5 -43.5 -25.5 -60.5s-37.167 -25.5 -60.5 -25.5zM335 525
c-24 0 -44.167 8.5 -60.5 25.5s-24.5 37.167 -24.5 60.5v108c0 24 8.16699 44.167 24.5 60.5s36.5 24.5 60.5 24.5c23.333 0 43.5 -8.16699 60.5 -24.5s25.5 -36.5 25.5 -60.5v-108c0 -23.333 -8.5 -43.5 -25.5 -60.5s-37.167 -25.5 -60.5 -25.5z" />
    <glyph glyph-name="numbersign" unicode="#" horiz-adv-x="681" 
d="M232 804c23.333 0 43.5 -8.5 60.5 -25.5s25.5 -37.167 25.5 -60.5v-23h45v23c0 23.333 8.16699 43.5 24.5 60.5s36.5 25.5 60.5 25.5c23.333 0 43.5 -8.5 60.5 -25.5s25.5 -37.167 25.5 -60.5v-23h21c23.333 0 43.5 -8.5 60.5 -25.5s25.5 -37.167 25.5 -60.5
c0 -24 -8.5 -44.167 -25.5 -60.5s-37.167 -24.5 -60.5 -24.5h-21v-151h21c23.333 0 43.5 -8.5 60.5 -25.5s25.5 -37.167 25.5 -60.5c0 -24 -8.5 -44.167 -25.5 -60.5s-37.167 -24.5 -60.5 -24.5h-21v-22c0 -24 -8.5 -44.167 -25.5 -60.5s-37.167 -24.5 -60.5 -24.5
c-24 0 -44.167 8.16699 -60.5 24.5s-24.5 36.5 -24.5 60.5v22h-45v-22c0 -24 -8.5 -44.167 -25.5 -60.5s-37.167 -24.5 -60.5 -24.5c-24 0 -44.167 8.16699 -60.5 24.5s-24.5 36.5 -24.5 60.5v22h-22c-24 0 -44.167 8.16699 -60.5 24.5s-24.5 36.5 -24.5 60.5
c0 23.333 8.16699 43.5 24.5 60.5s36.5 25.5 60.5 25.5h22v151h-22c-24 0 -44.167 8.16699 -60.5 24.5s-24.5 36.5 -24.5 60.5c0 23.333 8.16699 43.5 24.5 60.5s36.5 25.5 60.5 25.5h22v23c0 23.333 8.16699 43.5 24.5 60.5s36.5 25.5 60.5 25.5zM318 524v-151h45v151h-45z
" />
    <glyph glyph-name="dollar" unicode="$" horiz-adv-x="681" 
d="M40 449c1.33301 83.333 25.666 149 72.999 197s95.333 78.667 144 92c3.33301 16 12 31 26 45s33 21 57 21c23.333 0 41.5 -6.5 54.5 -19.5s21.5 -24.5 25.5 -34.5h136c24 0 44.167 -8.16699 60.5 -24.5s24.5 -36.5 24.5 -60.5c0 -23.333 -8.16699 -43.5 -24.5 -60.5
s-36.5 -25.5 -60.5 -25.5h-130v-227c29.333 29.333 44 61.666 44 96.999c0 24 8.5 44.167 25.5 60.5s37.167 24.5 60.5 24.5c24 0 44.167 -8.16699 60.5 -24.5s24.5 -36.5 24.5 -60.5c-1.33301 -83.333 -25.666 -149 -72.999 -197s-95.333 -78.667 -144 -92
c-3.33301 -16 -12.333 -30.833 -27 -44.5s-33.667 -20.5 -57 -20.5c-24 0 -42.167 6.16699 -54.5 18.5s-20.5 23.833 -24.5 34.5h-136c-24 0 -44.167 8.16699 -60.5 24.5s-24.5 36.5 -24.5 60.5c0 23.333 8.16699 43.5 24.5 60.5s36.5 25.5 60.5 25.5h130v227
c-29.333 -29.333 -44 -61.666 -44 -96.999c0 -24 -8.5 -44.167 -25.5 -60.5s-37.167 -24.5 -60.5 -24.5c-24 0 -44.167 8.16699 -60.5 24.5s-24.5 36.5 -24.5 60.5z" />
    <glyph glyph-name="percent" unicode="%" horiz-adv-x="688" 
d="M613 785c18.667 -14.667 29.168 -34.001 31.501 -58.001s-3.83398 -45 -18.501 -63l-430 -538c-15.333 -18.667 -34.833 -29 -58.5 -31s-44.5 4.33301 -62.5 19c-18.667 15.333 -29.167 34.333 -31.5 57s4.16699 43.334 19.5 62.001l430 539
c14.667 18 33.667 28.5 57 31.5s44.333 -3.16699 63 -18.5zM559.001 372.999c23.333 0 43.5 -8.5 60.5 -25.5s25.5 -37.167 25.5 -60.5v-107c0 -24 -8.5 -44.167 -25.5 -60.5s-37.167 -24.5 -60.5 -24.5c-24 0 -44.167 8.16699 -60.5 24.5s-24.5 36.5 -24.5 60.5v107
c0 23.333 8.16699 43.5 24.5 60.5s36.5 25.5 60.5 25.5zM129.001 803.999c23.333 0 43.5 -8.5 60.5 -25.5s25.5 -37.167 25.5 -60.5v-109c0 -24 -8.5 -44.167 -25.5 -60.5s-37.167 -24.5 -60.5 -24.5c-24 0 -44.167 8.16699 -60.5 24.5s-24.5 36.5 -24.5 60.5v109
c0 23.333 8.16699 43.5 24.5 60.5s36.5 25.5 60.5 25.5z" />
    <glyph glyph-name="ampersand" unicode="&#x26;" horiz-adv-x="681" 
d="M40 180v59c2.66699 80.667 33.334 150.667 92.001 210c-58.667 58.667 -89.334 128.334 -92.001 209.001v60c0 24.667 8.16699 45.167 24.5 61.5s36.5 24.5 60.5 24.5h1h429c23.333 0 43.5 -8.16699 60.5 -24.5s25.5 -36.5 25.5 -60.5c0 -23.333 -8.5 -43.5 -25.5 -60.5
s-37.167 -25.5 -60.5 -25.5h-340c5.33301 -22.667 18.666 -44.834 39.999 -66.501s50 -32.5 86 -32.5c22.667 0 42.5 -8.16699 59.5 -24.5s25.5 -36.5 25.5 -60.5v-1c0 -24 -8.5 -44.167 -25.5 -60.5s-36.833 -24.5 -59.5 -24.5c-36 0 -64.667 -10.667 -86 -32
s-34.666 -43 -39.999 -65h255v182c0 23.333 8.16699 43.5 24.5 60.5s36.5 25.5 60.5 25.5c23.333 0 43.5 -8.5 60.5 -25.5s25.5 -37.167 25.5 -60.5v-268c0 -24 -8.5 -44.167 -25.5 -60.5s-37.167 -24.5 -60.5 -24.5h-429h-1c-24 0 -44.167 8.16699 -60.5 24.5
s-24.5 36.5 -24.5 60.5z" />
    <glyph glyph-name="quotesingle" unicode="'" horiz-adv-x="251" 
d="M125 525c-24 0 -44.167 8.5 -60.5 25.5s-24.5 37.167 -24.5 60.5v108c0 24 8.16699 44.167 24.5 60.5s36.5 24.5 60.5 24.5c23.333 0 43.5 -8.16699 60.5 -24.5s25.5 -36.5 25.5 -60.5v-108c0 -23.333 -8.5 -43.5 -25.5 -60.5s-37.167 -25.5 -60.5 -25.5z" />
    <glyph glyph-name="parenleft" unicode="(" horiz-adv-x="466" 
d="M341 804c23.333 -0.666992 43.333 -9.33008 60 -25.9971s25 -36.667 25 -60c0 -24 -8.5 -44.167 -25.5 -60.5s-36.833 -24.5 -59.5 -24.5c-36 0 -66.667 -12.833 -92 -38.5s-38 -56.167 -38 -91.5v-107c0 -35.333 12.667 -65.833 38 -91.5s56 -38.5 92 -38.5
c22.667 0 42.5 -8.16699 59.5 -24.5s25.5 -36.5 25.5 -60.5c0 -23.333 -8.33301 -43.333 -25 -60s-36.667 -25.334 -60 -26.001c-84.667 1.33301 -155.334 30.666 -212.001 87.999s-86.334 126.333 -89.001 207v119c2.66699 80.667 32.334 149.667 89.001 207
s127.334 86.666 212.001 87.999z" />
    <glyph glyph-name="parenright" unicode=")" horiz-adv-x="466" 
d="M125 633c-22.667 0 -42.5 8.16309 -59.5 24.4961s-25.5 36.5 -25.5 60.5c0 23.333 8.33301 43.333 25 60s36.667 25.334 60 26.001c84.667 -1.33301 155.334 -30.666 212.001 -87.999s86.334 -126.333 89.001 -207v-119c-2.66699 -80.667 -32.334 -149.667 -89.001 -207
s-127.334 -86.666 -212.001 -87.999c-23.333 0.666992 -43.333 9.33398 -60 26.001s-25 36.667 -25 60c0 24 8.5 44.167 25.5 60.5s36.833 24.5 59.5 24.5c36 0 66.667 12.833 92 38.5s38 56.167 38 91.5v107c0 35.333 -12.667 65.833 -38 91.5s-56 38.5 -92 38.5z" />
    <glyph glyph-name="asterisk" unicode="*" horiz-adv-x="587" 
d="M536 529c7.33301 -22 5.50391 -43.833 -5.49609 -65.5s-27.5 -36.167 -49.5 -43.5l-54 -18l46 -67c12.667 -19.333 17.167 -40.5 13.5 -63.5s-15.834 -41.167 -36.501 -54.5c-19.333 -13.333 -41 -17.833 -65 -13.5s-42.667 16.166 -56 35.499l-35 53l-36 -53
c-13.333 -19.333 -32 -31.166 -56 -35.499s-45.667 0.166992 -65 13.5c-20.667 13.333 -32.834 31.5 -36.501 54.5s0.833008 44.167 13.5 63.5l46 67l-54 18c-22 7.33301 -38.5 21.833 -49.5 43.5s-12.833 43.5 -5.5 65.5c7.33301 23.333 21.666 40.166 42.999 50.499
s43 11.833 65 4.5l49 -16v53c0 23.333 8.16699 43.5 24.5 60.5s36.5 25.5 60.5 25.5c23.333 0 43.5 -8.5 60.5 -25.5s25.5 -37.167 25.5 -60.5v-53l49 16c22 7.33301 43.667 5.83301 65 -4.5s35.666 -27.166 42.999 -50.499z" />
    <glyph glyph-name="plus" unicode="+" horiz-adv-x="574" 
d="M286 696c23.333 0 43.5 -8.5 60.5 -25.5s25.5 -37.167 25.5 -60.5v-76h76c23.333 0 43.5 -8.5 60.5 -25.5s25.5 -37.167 25.5 -60.5c0 -24 -8.5 -44.167 -25.5 -60.5s-37.167 -24.5 -60.5 -24.5h-76v-76c0 -24 -8.5 -44.167 -25.5 -60.5s-37.167 -24.5 -60.5 -24.5
c-24 0 -44.167 8.16699 -60.5 24.5s-24.5 36.5 -24.5 60.5v76h-76c-24 0 -44.167 8.16699 -60.5 24.5s-24.5 36.5 -24.5 60.5c0 23.333 8.16699 43.5 24.5 60.5s36.5 25.5 60.5 25.5h76v76c0 23.333 8.16699 43.5 24.5 60.5s36.5 25.5 60.5 25.5z" />
    <glyph glyph-name="comma" unicode="," horiz-adv-x="251" 
d="M125 -14c-24 0 -44.167 8.5 -60.5 25.5s-24.5 37.167 -24.5 60.5v108c0 24 8.16699 44.167 24.5 60.5s36.5 24.5 60.5 24.5c23.333 0 43.5 -8.16699 60.5 -24.5s25.5 -36.5 25.5 -60.5v-108c0 -23.333 -8.5 -43.5 -25.5 -60.5s-37.167 -25.5 -60.5 -25.5z" />
    <glyph glyph-name="hyphen" unicode="-" horiz-adv-x="574" 
d="M40 448c0 23.333 8.16699 43.5 24.5 60.5s36.5 25.5 60.5 25.5h323c23.333 0 43.5 -8.5 60.5 -25.5s25.5 -37.167 25.5 -60.5c0 -24 -8.5 -44.167 -25.5 -60.5s-37.167 -24.5 -60.5 -24.5h-323c-24 0 -44.167 8.16699 -60.5 24.5s-24.5 36.5 -24.5 60.5z" />
    <glyph glyph-name="period" unicode="." horiz-adv-x="251" 
d="M40 180c0 24 8.16699 44.167 24.5 60.5s36.5 24.5 60.5 24.5c23.333 0 43.5 -8.16699 60.5 -24.5s25.5 -36.5 25.5 -60.5c0 -23.333 -8.5 -43.5 -25.5 -60.5s-37.167 -25.5 -60.5 -25.5c-24 0 -44.167 8.5 -60.5 25.5s-24.5 37.167 -24.5 60.5z" />
    <glyph glyph-name="slash" unicode="/" horiz-adv-x="491" 
d="M392 797c21.333 -9.33301 36.501 -25.165 45.501 -47.498s8.83301 -44.166 -0.5 -65.499l-226 -538c-9.33301 -22 -25 -37.333 -47 -46s-43.667 -8.33398 -65 0.999023c-22 9.33301 -37.333 24.666 -46 45.999s-8.33398 43.333 0.999023 66l226 538
c9.33301 21.333 24.833 36.666 46.5 45.999s43.5 9.33301 65.5 0z" />
    <glyph glyph-name="zero" unicode="0" horiz-adv-x="681" 
d="M341 804c84.667 -2 155.167 -31.5 211.5 -88.5s85.833 -125.833 88.5 -206.5v-119c-2.66699 -80.667 -32.167 -149.5 -88.5 -206.5s-127.166 -86.5 -212.499 -88.5c-84.667 2 -155.167 31.5 -211.5 88.5s-85.833 125.833 -88.5 206.5v119
c2.66699 80.667 32.167 149.5 88.5 206.5s127.166 86.5 212.499 88.5zM211 503v-107c0 -35.333 12.667 -65.833 38 -91.5s56 -38.5 92 -38.5c35.333 0 65.666 12.833 90.999 38.5s38 56.167 38 91.5v107c0 35.333 -12.667 65.833 -38 91.5s-55.666 38.5 -90.999 38.5
c-36 0 -66.667 -12.833 -92 -38.5s-38 -56.167 -38 -91.5z" />
    <glyph glyph-name="one" unicode="1" horiz-adv-x="466" 
d="M426 179c0 -24 -8.50195 -44.1689 -25.502 -60.502s-37.167 -24.5 -60.5 -24.5c-24 0 -44.167 8.16699 -60.5 24.5s-24.5 36.5 -24.5 60.5v324c0 35.333 -12.667 65.833 -38 91.5s-56 38.5 -92 38.5c-22.667 0 -42.5 8.16699 -59.5 24.5s-25.5 36.5 -25.5 60.5
c0 23.333 8.33301 43.333 25 60s36.667 25.334 60 26.001c84.667 -1.33301 155.334 -30.666 212.001 -87.999s86.334 -126.333 89.001 -207v-330z" />
    <glyph glyph-name="two" unicode="2" horiz-adv-x="681" 
d="M40 719c0 24 8.16699 44.1689 24.5 60.502s36.5 24.5 60.5 24.5h221c82 -2.66699 151 -32.334 207 -89.001s85.333 -125.334 88 -206.001v-34c0 -24 -8.5 -44.167 -25.5 -60.5s-37.167 -24.5 -60.5 -24.5c-24 0 -44.167 8.16699 -60.5 24.5s-24.5 36.5 -24.5 60.5v28
c0 35.333 -12.667 65.833 -38 91.5s-56 38.5 -92 38.5h-215c-24 0 -44.167 8.5 -60.5 25.5s-24.5 37.167 -24.5 60.5zM555 266.002c23.333 0 43.498 -8.49805 60.498 -25.498s25.5 -37.167 25.5 -60.5c0 -24 -8.5 -44.167 -25.5 -60.5s-37.167 -24.5 -60.5 -24.5h-430
c-24 0 -44.167 8.16699 -60.5 24.5s-24.5 38.5 -24.5 66.5c2.66699 80.667 32.334 149.667 89.001 207s127.334 86.666 212.001 87.999c23.333 -0.666992 43.333 -9.33398 60 -26.001s25 -36.667 25 -60c0 -24 -8.5 -44.167 -25.5 -60.5s-36.833 -24.5 -59.5 -24.5
c-36 0 -68.333 -14.667 -97 -44h311z" />
    <glyph glyph-name="three" unicode="3" horiz-adv-x="681" 
d="M94 448c0 23.333 8.16699 43.5 24.5 60.5s36.5 25.5 60.5 25.5h162c23.333 0 43.5 -8.5 60.5 -25.5s25.5 -37.167 25.5 -60.5c0 -24 -8.5 -44.167 -25.5 -60.5s-37.167 -24.5 -60.5 -24.5h-162c-24 0 -44.167 8.16699 -60.5 24.5s-24.5 36.5 -24.5 60.5zM40 180
c0 23.333 8.16602 43.502 24.499 60.502s36.5 25.5 60.5 25.5h214c36.667 0 67.667 12.833 93 38.5s38 56.167 38 91.5v107c0 35.333 -12.667 65.833 -38 91.5s-56 38.5 -92 38.5h-215c-24 0 -44.167 8.5 -60.5 25.5s-24.5 37.167 -24.5 60.5c0 24 8.16699 44.167 24.5 60.5
s36.5 24.5 60.5 24.5h221c82 -2.66699 151 -32.334 207 -89.001s85.333 -125.334 88 -206.001v-119c-2.66699 -80.667 -32.167 -149.5 -88.5 -206.5s-126.166 -86.5 -209.499 -88.5h-218c-24 0 -44.167 8.16699 -60.5 24.5s-24.5 36.5 -24.5 60.5z" />
    <glyph glyph-name="four" unicode="4" horiz-adv-x="681" 
d="M555 94c-24 0 -44.167 8.5 -60.5 25.5s-24.5 37.167 -24.5 60.5v538c0 24 8.16699 44.167 24.5 60.5s36.5 24.5 60.5 24.5c23.333 0 43.5 -8.16699 60.5 -24.5s25.5 -36.5 25.5 -60.5v-538c0 -23.333 -8.5 -43.5 -25.5 -60.5s-37.167 -25.5 -60.5 -25.5zM341 426
c22.667 0 42.502 -8.16504 59.502 -24.498s25.5 -36.5 25.5 -60.5c0 -23.333 -8.33301 -43.333 -25 -60s-36.667 -25.334 -60 -26.001c-84.667 1.33301 -155.334 30.666 -212.001 87.999s-86.334 126.333 -89.001 207v168c0 24 8.16699 44.167 24.5 60.5
s36.5 24.5 60.5 24.5c23.333 0 43.5 -8.16699 60.5 -24.5s25.5 -36.5 25.5 -60.5v-162c0 -35.333 12.667 -65.833 38 -91.5s56 -38.5 92 -38.5z" />
    <glyph glyph-name="five" unicode="5" horiz-adv-x="681" 
d="M125 309c-24 0 -44.167 8.49902 -60.5 25.499s-24.5 37.167 -24.5 60.5v324c0 24 8.16699 44.167 24.5 60.5s36.5 24.5 60.5 24.5h430c23.333 0 43.5 -8.16699 60.5 -24.5s25.5 -36.5 25.5 -60.5c0 -23.333 -8.5 -43.5 -25.5 -60.5s-37.167 -25.5 -60.5 -25.5h-344v-153
h135c82 -2.66699 151.333 -32.667 208 -90s85.667 -127.666 87 -210.999c0 -24 -8.16699 -44.167 -24.5 -60.5s-36.5 -24.5 -60.5 -24.5c-23.333 0 -43.5 8.16699 -60.5 24.5s-25.5 36.5 -25.5 60.5c0 35.333 -12.667 65.833 -38 91.5s-56 38.5 -92 38.5h-214h-1z" />
    <glyph glyph-name="six" unicode="6" horiz-adv-x="681" 
d="M340 94c-84.667 2 -155.169 31.498 -211.502 88.498s-85.833 125.833 -88.5 206.5v329c0 24 8.16699 44.167 24.5 60.5s36.5 24.5 60.5 24.5c23.333 0 43.5 -8.16699 60.5 -24.5s25.5 -36.5 25.5 -60.5v-323c0 -35.333 12.667 -65.833 38 -91.5s56 -38.5 92 -38.5
c35.333 0 65.666 12.833 90.999 38.5s38 56.167 38 91.5s-12.667 65.833 -38 91.5s-56 38.5 -92 38.5c-22.667 0 -42.5 8.16699 -59.5 24.5s-25.5 36.5 -25.5 60.5c0 23.333 8.33301 43.333 25 60s36.667 25.334 60 26.001c84.667 -1.33301 155.334 -30.666 212.001 -87.999
s86.334 -128.333 89.001 -213c-2.66699 -84.667 -32.167 -155.5 -88.5 -212.5s-127.166 -86.5 -212.499 -88.5z" />
    <glyph glyph-name="seven" unicode="7" horiz-adv-x="681" 
d="M40 719c0 24 8.16699 44.1689 24.5 60.502s36.5 24.5 60.5 24.5h221c82 -2.66699 151 -32.334 207 -89.001s85.333 -125.334 88 -206.001v-330c0 -24 -8.5 -44.167 -25.5 -60.5s-37.167 -24.5 -60.5 -24.5c-24 0 -44.167 8.16699 -60.5 24.5s-24.5 36.5 -24.5 60.5v324
c0 35.333 -12.667 65.833 -38 91.5s-56 38.5 -92 38.5h-129v-131c0 -24 -8.5 -44.167 -25.5 -60.5s-37.167 -24.5 -60.5 -24.5c-24 0 -44.167 8.16699 -60.5 24.5s-24.5 36.5 -24.5 60.5v217z" />
    <glyph glyph-name="eight" unicode="8" horiz-adv-x="681" 
d="M40 181v58c2.66699 80.667 33.334 150.667 92.001 210c-58.667 58.667 -89.334 128.334 -92.001 209.001v60c0 23.333 8.16699 43.5 24.5 60.5s36.5 25.5 60.5 25.5h1h429c23.333 0 43.5 -8.5 60.5 -25.5s25.5 -37.167 25.5 -60.5v-60
c-2.66699 -80.667 -33.334 -150.334 -92.001 -209.001c58.667 -59.333 89.334 -129.333 92.001 -210v-58c0 -24.667 -8.5 -45.167 -25.5 -61.5s-37.167 -24.5 -60.5 -24.5h-429h-1c-24 0 -44.167 8.16699 -60.5 24.5s-24.5 36.833 -24.5 61.5zM341 534
c35.333 0 63.6689 10.833 85.002 32.5s34.666 43.834 39.999 66.501h-251c5.33301 -22.667 18.666 -44.834 39.999 -66.501s50 -32.5 86 -32.5zM466.003 266c-5.33301 22 -18.6689 43.667 -40.002 65s-49.666 32 -84.999 32c-36 0 -64.667 -10.667 -86 -32
s-34.666 -43 -39.999 -65h251z" />
    <glyph glyph-name="nine" unicode="9" horiz-adv-x="681" 
d="M341 802c84.667 -2 155.169 -31.498 211.502 -88.498s85.833 -125.833 88.5 -206.5v-329c0 -24 -8.16699 -44.167 -24.5 -60.5s-36.5 -24.5 -60.5 -24.5c-23.333 0 -43.5 8.16699 -60.5 24.5s-25.5 36.5 -25.5 60.5v323c0 35.333 -12.667 65.833 -38 91.5
s-55.666 38.5 -90.999 38.5c-36 0 -66.667 -12.833 -92 -38.5s-38 -56.167 -38 -91.5s12.667 -65.833 38 -91.5s56 -38.5 92 -38.5c22.667 0 42.5 -8.16699 59.5 -24.5s25.5 -36.5 25.5 -60.5c0 -23.333 -8.33301 -43.333 -25 -60s-36.667 -25.334 -60 -26.001
c-84.667 1.33301 -155.334 30.666 -212.001 87.999s-86.334 128.333 -89.001 213c2.66699 84.667 32.167 155.5 88.5 212.5s127.166 86.5 212.499 88.5z" />
    <glyph glyph-name="colon" unicode=":" horiz-adv-x="251" 
d="M40 611c0 24 8.16699 44.167 24.5 60.5s36.5 24.5 60.5 24.5c23.333 0 43.5 -8.16699 60.5 -24.5s25.5 -36.5 25.5 -60.5c0 -23.333 -8.5 -43.5 -25.5 -60.5s-37.167 -25.5 -60.5 -25.5c-24 0 -44.167 8.5 -60.5 25.5s-24.5 37.167 -24.5 60.5zM40 342
c0 24 8.16699 44.167 24.5 60.5s36.5 24.5 60.5 24.5c23.333 0 43.5 -8.16699 60.5 -24.5s25.5 -36.5 25.5 -60.5c0 -23.333 -8.5 -43.5 -25.5 -60.5s-37.167 -25.5 -60.5 -25.5c-24 0 -44.167 8.5 -60.5 25.5s-24.5 37.167 -24.5 60.5z" />
    <glyph glyph-name="semicolon" unicode=";" horiz-adv-x="251" 
d="M125 148c-24 0 -44.167 8.5 -60.5 25.5s-24.5 37.167 -24.5 60.5v108c0 24 8.16699 44.167 24.5 60.5s36.5 24.5 60.5 24.5c23.333 0 43.5 -8.16699 60.5 -24.5s25.5 -36.5 25.5 -60.5v-108c0 -23.333 -8.5 -43.5 -25.5 -60.5s-37.167 -25.5 -60.5 -25.5zM40 611
c0 24 8.16699 44.167 24.5 60.5s36.5 24.5 60.5 24.5c23.333 0 43.5 -8.16699 60.5 -24.5s25.5 -36.5 25.5 -60.5c0 -23.333 -8.5 -43.5 -25.5 -60.5s-37.167 -25.5 -60.5 -25.5c-24 0 -44.167 8.5 -60.5 25.5s-24.5 37.167 -24.5 60.5z" />
    <glyph glyph-name="less" unicode="&#x3c;" horiz-adv-x="687" 
d="M79 519l430.999 270.998c20 13.333 41.5 17.333 64.5 12s40.833 -17.666 53.5 -36.999c12.667 -20 16.667 -41.5 12 -64.5s-17 -40.833 -37 -53.5l-316 -198l316 -198c20 -12.667 32.333 -30.5 37 -53.5s0.666992 -44.5 -12 -64.5
c-12.667 -19.333 -30.5 -31.666 -53.5 -36.999s-44.5 -1.33301 -64.5 12l-428 268c-10.667 8.66699 -20 18 -28 28s-12.667 24.333 -14 43c0.666992 19.333 4.83398 34.5 12.501 45.5s16.5 19.833 26.5 26.5z" />
    <glyph glyph-name="equal" unicode="=" horiz-adv-x="574" 
d="M40 341c0 23.333 8.16699 43.5 24.5 60.5s36.5 25.5 60.5 25.5h323c23.333 0 43.5 -8.5 60.5 -25.5s25.5 -37.167 25.5 -60.5c0 -24 -8.5 -44.167 -25.5 -60.5s-37.167 -24.5 -60.5 -24.5h-323c-24 0 -44.167 8.16699 -60.5 24.5s-24.5 36.5 -24.5 60.5zM40 556
c0 23.333 8.16699 43.5 24.5 60.5s36.5 25.5 60.5 25.5h323c23.333 0 43.5 -8.5 60.5 -25.5s25.5 -37.167 25.5 -60.5c0 -24 -8.5 -44.167 -25.5 -60.5s-37.167 -24.5 -60.5 -24.5h-323c-24 0 -44.167 8.16699 -60.5 24.5s-24.5 36.5 -24.5 60.5z" />
    <glyph glyph-name="greater" unicode="&#x3e;" horiz-adv-x="687" 
d="M608 519c10 -6.66699 18.832 -15.498 26.499 -26.498s11.834 -26.167 12.501 -45.5c-1.33301 -18.667 -6 -33 -14 -43s-17.333 -19.333 -28 -28l-428 -268c-20 -13.333 -41.5 -17.333 -64.5 -12s-40.833 17.666 -53.5 36.999c-12.667 20 -16.667 41.5 -12 64.5
s17 40.833 37 53.5l316 198l-316 198c-20 12.667 -32.333 30.5 -37 53.5s-0.666992 44.5 12 64.5c12.667 19.333 30.5 31.666 53.5 36.999s44.5 1.33301 64.5 -12z" />
    <glyph glyph-name="question" unicode="?" horiz-adv-x="681" 
d="M40 503c1.33301 83.333 30.502 153.831 87.502 211.498s127.833 87.5 212.5 89.5c85.333 -2 156.166 -31.5 212.499 -88.5s85.833 -127.833 88.5 -212.5c-2.66699 -84.667 -32.334 -155.667 -89.001 -213s-127.334 -86.666 -212.001 -87.999
c-23.333 0.666992 -43.333 9.33398 -60 26.001s-25 36.667 -25 60c0 24 8.5 44.167 25.5 60.5s36.833 24.5 59.5 24.5c36 0 66.667 12.833 92 38.5s38 56.167 38 91.5s-12.667 65.833 -38 91.5s-55.666 38.5 -90.999 38.5c-36 0 -66.667 -12.833 -92 -38.5
s-38 -56.167 -38 -91.5c0 -24 -8.5 -44.167 -25.5 -60.5s-37.167 -24.5 -60.5 -24.5c-24 0 -44.167 8.16699 -60.5 24.5s-24.5 36.5 -24.5 60.5zM255.002 71.998c0 23.333 8.16699 43.5 24.5 60.5s36.5 25.5 60.5 25.5c23.333 0 43.5 -8.5 60.5 -25.5
s25.5 -37.167 25.5 -60.5c0 -24 -8.5 -44.167 -25.5 -60.5s-37.167 -24.5 -60.5 -24.5c-24 0 -44.167 8.16699 -60.5 24.5s-24.5 36.5 -24.5 60.5z" />
    <glyph glyph-name="at" unicode="@" horiz-adv-x="681" 
d="M641 180c0 -24 -8.16797 -44.167 -24.501 -60.5s-36.5 -24.5 -60.5 -24.5h-218c-83.333 2 -153.166 31.5 -209.499 88.5s-85.833 125.833 -88.5 206.5v119c2.66699 80.667 32.167 149.5 88.5 206.5s127.166 86.5 212.499 88.5c84.667 -2 155.167 -31.5 211.5 -88.5
s85.833 -125.833 88.5 -206.5v-114c0 -24 -8.5 -44.167 -25.5 -60.5s-37.167 -24.5 -60.5 -24.5h-214h-1c-24 0 -44.167 8.16699 -60.5 24.5s-24.5 36.5 -24.5 60.5v108c0 24 8.5 44.167 25.5 60.5s37.167 24.5 60.5 24.5c24 0 44.167 -8.16699 60.5 -24.5
s24.5 -36.5 24.5 -60.5v-22h44v22c0 35.333 -12.667 65.833 -38 91.5s-55.666 38.5 -90.999 38.5c-36 0 -66.667 -12.833 -92 -38.5s-38 -56.167 -38 -91.5v-107c0 -35.333 12.667 -65.833 38 -91.5s56 -38.5 92 -38.5h1h214c24 0 44.167 -8.5 60.5 -25.5
s24.5 -37.167 24.5 -60.5z" />
    <glyph glyph-name="A" unicode="A" horiz-adv-x="681" 
d="M255 395c0 23.333 8.16699 43.5 24.5 60.5s36.5 25.5 60.5 25.5h130v22c0 35.333 -12.667 65.833 -38 91.5s-55.666 38.5 -90.999 38.5c-36 0 -66.667 -12.833 -92 -38.5s-38 -56.167 -38 -91.5v-323c0 -24 -8.5 -44.167 -25.5 -60.5s-37.167 -24.5 -60.5 -24.5
c-24 0 -44.167 8.16699 -60.5 24.5s-24.5 36.5 -24.5 60.5v329c2.66699 80.667 32.167 149.5 88.5 206.5s127.166 86.5 212.499 88.5c84.667 -2 155.167 -31.5 211.5 -88.5s85.833 -125.833 88.5 -206.5v-329c0 -24 -8.5 -44.167 -25.5 -60.5s-37.167 -24.5 -60.5 -24.5
c-24 0 -44.167 8.16699 -60.5 24.5s-24.5 36.5 -24.5 60.5v130h-130c-24 0 -44.167 8.16699 -60.5 24.5s-24.5 36.5 -24.5 60.5z" />
    <glyph glyph-name="B" unicode="B" horiz-adv-x="681" 
d="M255 448c0 23.333 8.16699 43.499 24.5 60.499s36.5 25.5 60.5 25.5h126c-5.33301 22.667 -18.666 44.834 -39.999 66.501s-50 32.5 -86 32.5h-129v-367h128c36.667 0 65.667 10.667 87 32s34.666 43 39.999 65h-126c-24 0 -44.167 8.16699 -60.5 24.5
s-24.5 36.5 -24.5 60.5zM40 718.999c0 24 8.16602 44.1689 24.499 60.502s36.5 24.5 60.5 24.5h221c82 -2.66699 151 -32.334 207 -89.001s85.333 -125.334 88 -206.001v-119c-2.66699 -80.667 -32.167 -149.5 -88.5 -206.5s-126.166 -86.5 -209.499 -88.5h-218
c-24 0 -44.167 8.16699 -60.5 24.5s-24.5 36.5 -24.5 60.5v539z" />
    <glyph glyph-name="C" unicode="C" horiz-adv-x="681" 
d="M641 719c0 -23.333 -8.16699 -43.502 -24.5 -60.502s-36.5 -25.5 -60.5 -25.5h-215c-36 0 -66.667 -12.833 -92 -38.5s-38 -56.167 -38 -91.5v-107c0 -35.333 12.667 -65.833 38 -91.5s56 -38.5 92 -38.5c35.333 0 65.666 12.833 90.999 38.5s38 56.167 38 91.5
c0 24 8.5 44.167 25.5 60.5s37.167 24.5 60.5 24.5c24 0 44.167 -8.16699 60.5 -24.5s24.5 -36.5 24.5 -60.5c-1.33301 -83.333 -30.5 -153.833 -87.5 -211.5s-127.833 -87.5 -212.5 -89.5c-85.333 2 -156.166 31.5 -212.499 88.5s-85.833 125.833 -88.5 206.5v119
c2.66699 80.667 32 149.334 88 206.001s125 86.334 207 89.001h221c24 0 44.167 -8.16699 60.5 -24.5s24.5 -36.5 24.5 -60.5z" />
    <glyph glyph-name="D" unicode="D" horiz-adv-x="681" 
d="M40 719c0 24 8.16602 44.1689 24.499 60.502s36.5 24.5 60.5 24.5h221c82 -2.66699 151 -32.334 207 -89.001s85.333 -125.334 88 -206.001v-119c-2.66699 -80.667 -32.167 -149.5 -88.5 -206.5s-126.166 -86.5 -209.499 -88.5h-218c-24 0 -44.167 8.16699 -60.5 24.5
s-24.5 36.5 -24.5 60.5v539zM338.999 266.002c36.667 0 67.667 12.833 93 38.5s38 56.167 38 91.5v107c0 35.333 -12.667 65.833 -38 91.5s-56 38.5 -92 38.5h-129v-367h128z" />
    <glyph glyph-name="E" unicode="E" horiz-adv-x="681" 
d="M587 448c0 -24 -8.16699 -44.167 -24.5 -60.5s-36.5 -24.5 -60.5 -24.5h-162c-23.333 0 -43.5 8.16699 -60.5 24.5s-25.5 36.5 -25.5 60.5c0 23.333 8.5 43.5 25.5 60.5s37.167 25.5 60.5 25.5h162c24 0 44.167 -8.5 60.5 -25.5s24.5 -37.167 24.5 -60.5zM641 180
c0 -24 -8.16797 -44.1689 -24.501 -60.502s-36.5 -24.5 -60.5 -24.5h-218c-83.333 2 -153.166 31.5 -209.499 88.5s-85.833 125.833 -88.5 206.5v119c2.66699 80.667 32 149.334 88 206.001s125 86.334 207 89.001h221c24 0 44.167 -8.16699 60.5 -24.5
s24.5 -36.5 24.5 -60.5c0 -23.333 -8.16699 -43.5 -24.5 -60.5s-36.5 -25.5 -60.5 -25.5h-215c-36 0 -66.667 -12.833 -92 -38.5s-38 -56.167 -38 -91.5v-107c0 -35.333 12.667 -65.833 38 -91.5s56 -38.5 92 -38.5h1h214c24 0 44.167 -8.5 60.5 -25.5
s24.5 -37.167 24.5 -60.5z" />
    <glyph glyph-name="F" unicode="F" horiz-adv-x="681" 
d="M587 448c0 -24 -8.16699 -44.167 -24.5 -60.5s-36.5 -24.5 -60.5 -24.5h-162c-23.333 0 -43.5 8.16699 -60.5 24.5s-25.5 36.5 -25.5 60.5c0 23.333 8.5 43.5 25.5 60.5s37.167 25.5 60.5 25.5h162c24 0 44.167 -8.5 60.5 -25.5s24.5 -37.167 24.5 -60.5zM641 719
c0 -23.333 -8.16699 -43.502 -24.5 -60.502s-36.5 -25.5 -60.5 -25.5h-215c-36 0 -66.667 -12.833 -92 -38.5s-38 -56.167 -38 -91.5v-323c0 -24 -8.5 -44.167 -25.5 -60.5s-37.167 -24.5 -60.5 -24.5c-24 0 -44.167 8.16699 -60.5 24.5s-24.5 36.5 -24.5 60.5v329
c2.66699 80.667 32 149.334 88 206.001s125 86.334 207 89.001h221c24 0 44.167 -8.16699 60.5 -24.5s24.5 -36.5 24.5 -60.5z" />
    <glyph glyph-name="G" unicode="G" horiz-adv-x="681" 
d="M641 719c0 -23.333 -8.16602 -43.502 -24.499 -60.502s-36.5 -25.5 -60.5 -25.5h-215c-36 0 -66.667 -12.833 -92 -38.5s-38 -56.167 -38 -91.5v-107c0 -35.333 12.667 -65.833 38 -91.5s56 -38.5 92 -38.5c35.333 0 63.666 10.667 84.999 32s34.666 43 39.999 65h-126
c-24 0 -44.167 8.16699 -60.5 24.5s-24.5 36.5 -24.5 60.5c0 23.333 8.16699 43.5 24.5 60.5s36.5 25.5 60.5 25.5h215c23.333 0 43.5 -8.5 60.5 -25.5s25.5 -37.167 25.5 -60.5v-58c-2.66699 -80.667 -32.167 -149.5 -88.5 -206.5s-126.166 -86.5 -209.499 -88.5
c-86.667 2 -158.167 31.5 -214.5 88.5s-85.833 125.833 -88.5 206.5v119c2.66699 80.667 32 149.334 88 206.001s125 86.334 207 89.001h221c24 0 44.167 -8.16699 60.5 -24.5s24.5 -36.5 24.5 -60.5z" />
    <glyph glyph-name="H" unicode="H" horiz-adv-x="681" 
d="M125 804c23.333 0 43.5 -8.5 60.5 -25.5s25.5 -37.167 25.5 -60.5v-538c0 -24 -8.5 -44.167 -25.5 -60.5s-37.167 -24.5 -60.5 -24.5c-24 0 -44.167 8.16699 -60.5 24.5s-24.5 36.5 -24.5 60.5v538c0 23.333 8.16699 43.5 24.5 60.5s36.5 25.5 60.5 25.5zM555 804
c23.333 0 43.5 -8.5 60.5 -25.5s25.5 -37.167 25.5 -60.5v-538c0 -24 -8.5 -44.167 -25.5 -60.5s-37.167 -24.5 -60.5 -24.5c-24 0 -44.167 8.16699 -60.5 24.5s-24.5 36.5 -24.5 60.5v183h-130c-24 0 -44.167 8.16699 -60.5 24.5s-24.5 36.5 -24.5 60.5
c0 23.333 8.16699 43.5 24.5 60.5s36.5 25.5 60.5 25.5h130v184c0 23.333 8.16699 43.5 24.5 60.5s36.5 25.5 60.5 25.5z" />
    <glyph glyph-name="I" unicode="I" horiz-adv-x="251" 
d="M125 804c23.333 0 43.5 -8.5 60.5 -25.5s25.5 -37.167 25.5 -60.5v-538c0 -24 -8.5 -44.167 -25.5 -60.5s-37.167 -24.5 -60.5 -24.5c-24 0 -44.167 8.16699 -60.5 24.5s-24.5 36.5 -24.5 60.5v538c0 23.333 8.16699 43.5 24.5 60.5s36.5 25.5 60.5 25.5z" />
    <glyph glyph-name="J" unicode="J" horiz-adv-x="681" 
d="M40 396c0 24 8.16797 44.167 24.501 60.5s36.5 24.5 60.5 24.5c23.333 0 43.5 -8.16699 60.5 -24.5s25.5 -36.5 25.5 -60.5c0 -35.333 12.667 -65.833 38 -91.5s56 -38.5 92 -38.5c35.333 0 65.666 12.833 90.999 38.5s38 56.167 38 91.5v237h-129
c-23.333 0 -43.5 8.5 -60.5 25.5s-25.5 37.167 -25.5 60.5c0 24 8.5 44.167 25.5 60.5s37.167 24.5 60.5 24.5h215c24 0 44.167 -8.16699 60.5 -24.5s24.5 -36.5 24.5 -60.5v-329c-2.66699 -80.667 -32.167 -149.5 -88.5 -206.5s-126.833 -86.5 -211.5 -88.5
c-85.333 2 -156.5 31.833 -213.5 89.5s-86.167 128.167 -87.5 211.5z" />
    <glyph glyph-name="K" unicode="K" horiz-adv-x="681" 
d="M125 804c23.333 0 43.5 -8.5 60.5 -25.5s25.5 -37.167 25.5 -60.5v-538c0 -24 -8.5 -44.167 -25.5 -60.5s-37.167 -24.5 -60.5 -24.5c-24 0 -44.167 8.16699 -60.5 24.5s-24.5 36.5 -24.5 60.5v538c0 23.333 8.16699 43.5 24.5 60.5s36.5 25.5 60.5 25.5zM555 804
c23.333 0 43.5 -8.49902 60.5 -25.499s25.5 -37.167 25.5 -60.5v-60c-2.66699 -80.667 -33.334 -150.334 -92.001 -209.001c58.667 -59.333 89.334 -129.333 92.001 -210v-58c0 -23.333 -8.5 -43.5 -25.5 -60.5s-37.167 -25.5 -60.5 -25.5c-24 0 -44.167 8.5 -60.5 25.5
s-24.5 37.167 -24.5 60.5v52c0 35.333 -12.667 65.833 -38 91.5s-56 38.5 -92 38.5c-22.667 0 -42.5 8.16699 -59.5 24.5s-25.5 36.5 -25.5 60.5v1c0 24 8.5 44.167 25.5 60.5s36.833 24.5 59.5 24.5c36 0 66.667 12.833 92 38.5s38 56.167 38 91.5v54
c0 23.333 8.16699 43.5 24.5 60.5s36.5 25.5 60.5 25.5z" />
    <glyph glyph-name="L" unicode="L" horiz-adv-x="681" 
d="M125 804c23.333 0 43.5 -8.5 60.5 -25.5s25.5 -37.167 25.5 -60.5v-452h344c23.333 0 43.5 -8.5 60.5 -25.5s25.5 -37.167 25.5 -60.5c0 -24 -8.5 -44.167 -25.5 -60.5s-37.167 -24.5 -60.5 -24.5h-430c-24 0 -44.167 8.16699 -60.5 24.5s-24.5 36.5 -24.5 60.5v538
c0 23.333 8.16699 43.5 24.5 60.5s36.5 25.5 60.5 25.5z" />
    <glyph glyph-name="M" unicode="M" horiz-adv-x="789" 
d="M393 589c23.333 0 43.5 -8.5 60.5 -25.5s25.5 -37.167 25.5 -60.5v-323c0 -24 -8.5 -44.167 -25.5 -60.5s-37.167 -24.5 -60.5 -24.5c-24 0 -44.167 8.16699 -60.5 24.5s-24.5 36.5 -24.5 60.5v323c0 23.333 8.16699 43.5 24.5 60.5s36.5 25.5 60.5 25.5zM749 180
c0 -24 -8.5 -44.167 -25.5 -60.5s-37.167 -24.5 -60.5 -24.5c-24 0 -44.167 8.16699 -60.5 24.5s-24.5 36.5 -24.5 60.5v323c0 35.333 -12.667 65.833 -38 91.5s-56 38.5 -92 38.5h-107c-36 0 -66.667 -12.833 -92 -38.5s-38 -56.167 -38 -91.5v-323
c0 -24 -8.5 -44.167 -25.5 -60.5s-37.167 -24.5 -60.5 -24.5c-24 0 -44.167 8.16699 -60.5 24.5s-24.5 36.5 -24.5 60.5v329c2.66699 80.667 32 149.334 88 206.001s125 86.334 207 89.001h119c82 -2.66699 151 -32.334 207 -89.001s85.333 -125.334 88 -206.001v-329z" />
    <glyph glyph-name="N" unicode="N" horiz-adv-x="681" 
d="M341 804c84.667 -2 155.167 -31.5 211.5 -88.5s85.833 -125.833 88.5 -206.5v-329c0 -24 -8.5 -44.167 -25.5 -60.5s-37.167 -24.5 -60.5 -24.5c-24 0 -44.167 8.16699 -60.5 24.5s-24.5 36.5 -24.5 60.5v323c0 35.333 -12.667 65.833 -38 91.5
s-55.666 38.5 -90.999 38.5c-36 0 -66.667 -12.833 -92 -38.5s-38 -56.167 -38 -91.5v-323c0 -24 -8.5 -44.167 -25.5 -60.5s-37.167 -24.5 -60.5 -24.5c-24 0 -44.167 8.16699 -60.5 24.5s-24.5 36.5 -24.5 60.5v329c2.66699 80.667 32.167 149.5 88.5 206.5
s127.166 86.5 212.499 88.5z" />
    <glyph glyph-name="O" unicode="O" horiz-adv-x="681" 
d="M341 804c84.667 -2 155.167 -31.5 211.5 -88.5s85.833 -125.833 88.5 -206.5v-119c-2.66699 -80.667 -32.167 -149.5 -88.5 -206.5s-127.166 -86.5 -212.499 -88.5c-84.667 2 -155.167 31.5 -211.5 88.5s-85.833 125.833 -88.5 206.5v119
c2.66699 80.667 32.167 149.5 88.5 206.5s127.166 86.5 212.499 88.5zM211 503v-107c0 -35.333 12.667 -65.833 38 -91.5s56 -38.5 92 -38.5c35.333 0 65.666 12.833 90.999 38.5s38 56.167 38 91.5v107c0 35.333 -12.667 65.833 -38 91.5s-55.666 38.5 -90.999 38.5
c-36 0 -66.667 -12.833 -92 -38.5s-38 -56.167 -38 -91.5z" />
    <glyph glyph-name="P" unicode="P" horiz-adv-x="681" 
d="M341 804c84.667 -2 155.169 -31.502 211.502 -88.502s85.833 -127.833 88.5 -212.5c-2.66699 -84.667 -32.334 -155.667 -89.001 -213s-127.334 -86.666 -212.001 -87.999c-23.333 0.666992 -43.333 9.33398 -60 26.001s-25 36.667 -25 60c0 24 8.5 44.167 25.5 60.5
s36.833 24.5 59.5 24.5c36 0 66.667 12.833 92 38.5s38 56.167 38 91.5s-12.667 65.833 -38 91.5s-55.666 38.5 -90.999 38.5c-36 0 -66.667 -12.833 -92 -38.5s-38 -56.167 -38 -91.5v-323c0 -24 -8.5 -44.167 -25.5 -60.5s-37.167 -24.5 -60.5 -24.5
c-24 0 -44.167 8.16699 -60.5 24.5s-24.5 36.5 -24.5 60.5v329c2.66699 80.667 32.167 149.5 88.5 206.5s127.166 86.5 212.499 88.5z" />
    <glyph glyph-name="Q" unicode="Q" horiz-adv-x="681" 
d="M641 180c0 -24 -8.16797 -44.167 -24.501 -60.5s-36.5 -24.5 -60.5 -24.5h-218c-83.333 2 -153.166 31.5 -209.499 88.5s-85.833 125.833 -88.5 206.5v119c2.66699 80.667 32.167 149.5 88.5 206.5s127.166 86.5 212.499 88.5c84.667 -2 155.167 -31.5 211.5 -88.5
s85.833 -125.833 88.5 -206.5v-113c0 -24 -8.5 -44.167 -25.5 -60.5s-37.167 -24.5 -60.5 -24.5c-24 0 -44.167 8.16699 -60.5 24.5s-24.5 36.5 -24.5 60.5v107c0 35.333 -12.667 65.833 -38 91.5s-55.666 38.5 -90.999 38.5c-36 0 -66.667 -12.833 -92 -38.5
s-38 -56.167 -38 -91.5v-107c0 -35.333 12.667 -65.833 38 -91.5s56 -38.5 92 -38.5h1h214c24 0 44.167 -8.5 60.5 -25.5s24.5 -37.167 24.5 -60.5zM254.999 395c0 23.333 8.16699 43.5 24.5 60.5s36.5 25.5 60.5 25.5c23.333 0 43.5 -8.5 60.5 -25.5
s25.5 -37.167 25.5 -60.5c0 -24 -8.5 -44.167 -25.5 -60.5s-37.167 -24.5 -60.5 -24.5c-24 0 -44.167 8.16699 -60.5 24.5s-24.5 36.5 -24.5 60.5z" />
    <glyph glyph-name="R" unicode="R" horiz-adv-x="681" 
d="M255 288c0 24 8.33301 44 25 60c16 16.667 36 25 60 25c36 0 66.667 12.833 92 38.5s38 56.167 38 91.5s-12.667 65.833 -38 91.5s-55.666 38.5 -90.999 38.5c-36 0 -66.667 -12.833 -92 -38.5s-38 -56.167 -38 -91.5v-323c0 -24 -8.5 -44.167 -25.5 -60.5
s-37.167 -24.5 -60.5 -24.5c-24 0 -44.167 8.16699 -60.5 24.5s-24.5 36.5 -24.5 60.5v329c2.66699 80.667 32.167 149.5 88.5 206.5s127.166 86.5 212.499 88.5c84.667 -2 155.167 -31.5 211.5 -88.5s85.833 -127.833 88.5 -212.5
c-2.66699 -84.667 -35 -158.334 -97 -221.001l50 -25c10 -5.33301 20 -14 30 -26s15.667 -29 17 -51c0 -24 -8.5 -44.167 -25.5 -60.5s-37.167 -24.5 -60.5 -24.5c-14 0 -26.667 2.66699 -38 8l-217 108c-9.33301 5.33301 -18.5 13.333 -27.5 24
s-14.833 28.334 -17.5 53.001z" />
    <glyph glyph-name="S" unicode="S" horiz-adv-x="681" 
d="M641 719c0 -23.333 -8.16699 -43.502 -24.5 -60.502s-36.5 -25.5 -60.5 -25.5h-215c-36 0 -66.667 -12.833 -92 -38.5s-38 -56.167 -38 -91.5v-54c0 -24 -8.16699 -44.167 -24.5 -60.5s-36.5 -24.5 -60.5 -24.5c-23.333 0 -43.5 8.16699 -60.5 24.5
s-25.5 36.5 -25.5 60.5v60c2.66699 80.667 32 149.334 88 206.001s125 86.334 207 89.001h221c24 0 44.167 -8.16699 60.5 -24.5s24.5 -36.5 24.5 -60.5zM40 179.998c0 23.333 8.16699 43.502 24.5 60.502s36.5 25.5 60.5 25.5h215c36 0 66.667 12.833 92 38.5
s38 56.167 38 91.5v54c0 24 8.16699 44.167 24.5 60.5s36.5 24.5 60.5 24.5c23.333 0 43.5 -8.16699 60.5 -24.5s25.5 -36.5 25.5 -60.5v-60c-2.66699 -80.667 -32 -149.334 -88 -206.001s-125 -86.334 -207 -89.001h-221c-24 0 -44.167 8.16699 -60.5 24.5
s-24.5 36.5 -24.5 60.5zM255 449c0 23.333 8.16699 43.5 24.5 60.5s36.5 25.5 60.5 25.5c23.333 0 43.5 -8.5 60.5 -25.5s25.5 -37.167 25.5 -60.5c0 -24 -8.5 -44.167 -25.5 -60.5s-37.167 -24.5 -60.5 -24.5c-24 0 -44.167 8.16699 -60.5 24.5s-24.5 36.5 -24.5 60.5z" />
    <glyph glyph-name="T" unicode="T" horiz-adv-x="681" 
d="M40 718c0 23.333 8.16895 43.502 24.502 60.502s36.5 25.5 60.5 25.5h430c23.333 0 43.5 -8.5 60.5 -25.5s25.5 -37.167 25.5 -60.5c0 -24 -8.5 -44.167 -25.5 -60.5s-37.167 -24.5 -60.5 -24.5h-129v-238c0 -35.333 12.667 -65.833 38 -91.5s56 -38.5 92 -38.5
c22.667 0 42.5 -8.16699 59.5 -24.5s25.5 -36.5 25.5 -60.5c0 -23.333 -8.33301 -43.333 -25 -60s-36.667 -25.334 -60 -26.001c-84.667 1.33301 -155.334 30.666 -212.001 87.999s-86.334 126.333 -89.001 207v244h-130c-24 0 -44.167 8.16699 -60.5 24.5
s-24.5 36.5 -24.5 60.5z" />
    <glyph glyph-name="U" unicode="U" horiz-adv-x="681" 
d="M340 94c-84.667 2 -155.167 31.5 -211.5 88.5s-85.833 125.833 -88.5 206.5v329c0 24 8.16699 44.167 24.5 60.5s36.5 24.5 60.5 24.5c23.333 0 43.5 -8.16699 60.5 -24.5s25.5 -36.5 25.5 -60.5v-323c0 -35.333 12.667 -65.833 38 -91.5s56 -38.5 92 -38.5
c35.333 0 65.666 12.833 90.999 38.5s38 56.167 38 91.5v323c0 24 8.16699 44.167 24.5 60.5s36.5 24.5 60.5 24.5c23.333 0 43.5 -8.16699 60.5 -24.5s25.5 -36.5 25.5 -60.5v-329c-2.66699 -80.667 -32.167 -149.5 -88.5 -206.5s-127.166 -86.5 -212.499 -88.5z" />
    <glyph glyph-name="V" unicode="V" horiz-adv-x="681" 
d="M125 804c23.333 0 43.5 -8.5 60.5 -25.5s25.5 -37.167 25.5 -60.5v-452h129c36 0 66.667 12.833 92 38.5s38 56.167 38 91.5v322c0 24 8.16699 44.167 24.5 60.5s36.5 24.5 60.5 24.5c23.333 0 43.5 -8.16699 60.5 -24.5s25.5 -36.5 25.5 -60.5v-330
c-3.33301 -80 -32.833 -148.167 -88.5 -204.5s-124.5 -85.833 -206.5 -88.5h-221c-24 0 -44.167 8.16699 -60.5 24.5s-24.5 36.5 -24.5 60.5v538c0 23.333 8.16699 43.5 24.5 60.5s36.5 25.5 60.5 25.5z" />
    <glyph glyph-name="W" unicode="W" horiz-adv-x="789" 
d="M393 310c-24 0 -44.167 8.5 -60.5 25.5s-24.5 37.167 -24.5 60.5v323c0 24 8.16699 44.167 24.5 60.5s36.5 24.5 60.5 24.5c23.333 0 43.5 -8.16699 60.5 -24.5s25.5 -36.5 25.5 -60.5v-323c0 -23.333 -8.5 -43.5 -25.5 -60.5s-37.167 -25.5 -60.5 -25.5zM578 719
c0 24 8.16699 44.167 24.5 60.5s36.5 24.5 60.5 24.5c23.333 0 43.5 -8.16699 60.5 -24.5s25.5 -36.5 25.5 -60.5v-329c-2.66699 -80.667 -32 -149.334 -88 -206.001s-125 -86.334 -207 -89.001h-119c-82 2.66699 -151 32.334 -207 89.001s-85.333 125.334 -88 206.001v329
c0 24 8.16699 44.167 24.5 60.5s36.5 24.5 60.5 24.5c23.333 0 43.5 -8.16699 60.5 -24.5s25.5 -36.5 25.5 -60.5v-323c0 -35.333 12.667 -65.833 38 -91.5s56 -38.5 92 -38.5h107c36 0 66.667 12.833 92 38.5s38 56.167 38 91.5v323z" />
    <glyph glyph-name="X" unicode="X" horiz-adv-x="681" 
d="M555 804c23.333 0 43.5 -8.5 60.5 -25.5s25.5 -37.167 25.5 -60.5v-60c-2.66699 -80.667 -33.334 -150.334 -92.001 -209.001c58.667 -59.333 89.334 -129.333 92.001 -210v-58c0 -23.333 -8.5 -43.5 -25.5 -60.5s-37.167 -25.5 -60.5 -25.5
c-24 0 -44.167 8.5 -60.5 25.5s-24.5 37.167 -24.5 60.5v52c0 35.333 -12.667 65.833 -38 91.5s-55.666 38.5 -90.999 38.5c-36 0 -66.667 -12.833 -92 -38.5s-38 -56.167 -38 -91.5v-52c0 -23.333 -8.16699 -43.5 -24.5 -60.5s-36.5 -25.5 -60.5 -25.5
c-23.333 0 -43.5 8.5 -60.5 25.5s-25.5 37.167 -25.5 60.5v58c2.66699 80.667 33.334 150.667 92.001 210c-58.667 58.667 -89.334 128.334 -92.001 209.001v60c0 23.333 8.5 43.5 25.5 60.5s37.167 25.5 60.5 25.5c24 0 44.167 -8.5 60.5 -25.5s24.5 -37.167 24.5 -60.5
v-54c0 -35.333 12.667 -65.833 38 -91.5s56 -38.5 92 -38.5c35.333 0 65.666 12.833 90.999 38.5s38 56.167 38 91.5v54c0 23.333 8.16699 43.5 24.5 60.5s36.5 25.5 60.5 25.5z" />
    <glyph glyph-name="Y" unicode="Y" horiz-adv-x="681" 
d="M555 804c23.333 0 43.501 -8.5 60.501 -25.5s25.5 -37.167 25.5 -60.5v-114c-2.66699 -80.667 -27.167 -144.5 -73.5 -191.5s-93.5 -77.5 -141.5 -91.5v-141c0 -24 -8.5 -44.167 -25.5 -60.5s-37.167 -24.5 -60.5 -24.5c-24 0 -44.167 8.16699 -60.5 24.5
s-24.5 36.5 -24.5 60.5v141c-48 14 -95.167 44.5 -141.5 91.5s-70.833 110.833 -73.5 191.5v114c0 23.333 8.5 43.5 25.5 60.5s37.167 25.5 60.5 25.5c24 0 44.167 -8.5 60.5 -25.5s24.5 -37.167 24.5 -60.5v-108c0 -35.333 12.667 -65.833 38 -91.5s56 -38.5 92 -38.5
c35.333 0 65.666 12.833 90.999 38.5s38 56.167 38 91.5v108c0 23.333 8.16699 43.5 24.5 60.5s36.5 25.5 60.5 25.5z" />
    <glyph glyph-name="Z" unicode="Z" horiz-adv-x="681" 
d="M40 181v57.999c2.66699 80.667 31.834 149.167 87.501 205.5s126.5 86.166 212.5 89.499c36 0 64.667 10.833 86 32.5s34.666 43.834 39.999 66.501h-341c-24 0 -44.167 8.16699 -60.5 24.5s-24.5 36.5 -24.5 60.5c0 23.333 8.16699 43.5 24.5 60.5s36.5 25.5 60.5 25.5
h430c23.333 0 43.5 -8.5 60.5 -25.5s25.5 -37.167 25.5 -60.5v-60c-2.66699 -80.667 -31.834 -149.167 -87.501 -205.5s-126.5 -86.166 -212.5 -89.499c-36 0 -64.667 -10.667 -86 -32s-34.666 -43 -39.999 -65h340c23.333 0 43.5 -8.5 60.5 -25.5s25.5 -37.167 25.5 -60.5
c0 -24 -8.5 -44.167 -25.5 -60.5s-37.167 -24.5 -60.5 -24.5h-429h-1c-24 0 -44.167 8.16699 -60.5 24.5s-24.5 36.833 -24.5 61.5z" />
    <glyph glyph-name="bracketleft" unicode="[" horiz-adv-x="360" 
d="M233 266c23.333 0 43.5 -8.5 60.5 -25.5s25.5 -37.167 25.5 -60.5c0 -24 -8.5 -44.167 -25.5 -60.5s-37.167 -24.5 -60.5 -24.5h-108c-24 0 -44.167 8.16699 -60.5 24.5s-24.5 36.5 -24.5 60.5v538c0 23.333 8.16699 43.5 24.5 60.5s36.5 25.5 60.5 25.5h109
c23.333 0 43.5 -8.5 60.5 -25.5s25.5 -37.167 25.5 -60.5c0 -24 -8.5 -44.167 -25.5 -60.5s-37.167 -24.5 -60.5 -24.5h-23v-367h22z" />
    <glyph glyph-name="backslash" unicode="\" horiz-adv-x="681" 
d="M555 804c23.333 0 43.501 -8.5 60.501 -25.5s25.5 -37.167 25.5 -60.5v-60c-2.66699 -80.667 -27.167 -144.5 -73.5 -191.5s-93.5 -77.5 -141.5 -91.5v-3h129c23.333 0 43.5 -8.5 60.5 -25.5s25.5 -37.167 25.5 -60.5c0 -24 -8.5 -44.167 -25.5 -60.5
s-37.167 -24.5 -60.5 -24.5h-129v-21c0 -24 -8.5 -44.167 -25.5 -60.5s-37.167 -24.5 -60.5 -24.5c-24 0 -44.167 8.16699 -60.5 24.5s-24.5 36.5 -24.5 60.5v21h-130c-24 0 -44.167 8.16699 -60.5 24.5s-24.5 36.5 -24.5 60.5c0 23.333 8.16699 43.5 24.5 60.5
s36.5 25.5 60.5 25.5h130v3c-48 14 -95.167 44.5 -141.5 91.5s-70.833 110.833 -73.5 191.5v60c0 23.333 8.5 43.5 25.5 60.5s37.167 25.5 60.5 25.5c24 0 44.167 -8.5 60.5 -25.5s24.5 -37.167 24.5 -60.5v-54c0 -35.333 12.667 -65.833 38 -91.5s56 -38.5 92 -38.5
c35.333 0 65.666 12.833 90.999 38.5s38 56.167 38 91.5v54c0 23.333 8.16699 43.5 24.5 60.5s36.5 25.5 60.5 25.5z" />
    <glyph glyph-name="bracketright" unicode="]" horiz-adv-x="360" 
d="M127 95c-23.333 0 -43.5 8.16699 -60.5 24.5s-25.5 36.5 -25.5 60.5c0 23.333 8.5 43.5 25.5 60.5s37.167 25.5 60.5 25.5h22v367h-23c-23.333 0 -43.5 8.16699 -60.5 24.5s-25.5 36.5 -25.5 60.5c0 23.333 8.5 43.5 25.5 60.5s37.167 25.5 60.5 25.5h109
c24 0 44.167 -8.5 60.5 -25.5s24.5 -37.167 24.5 -60.5v-538c0 -24 -8.16699 -44.167 -24.5 -60.5s-36.5 -24.5 -60.5 -24.5h-108z" />
    <glyph glyph-name="asciicircum" unicode="^" horiz-adv-x="681" 
d="M40 503c1.33301 83.333 30.499 153.833 87.499 211.5s128.167 87.5 213.5 89.5c84.667 -2 155.5 -31.833 212.5 -89.5s86.167 -128.167 87.5 -211.5c0 -24 -8.16699 -44.167 -24.5 -60.5s-36.5 -24.5 -60.5 -24.5c-23.333 0 -43.5 8.16699 -60.5 24.5
s-25.5 36.5 -25.5 60.5c0 35.333 -12.667 65.833 -38 91.5s-55.666 38.5 -90.999 38.5c-36 0 -66.667 -12.833 -92 -38.5s-38 -56.167 -38 -91.5c0 -24 -8.5 -44.167 -25.5 -60.5s-37.167 -24.5 -60.5 -24.5c-24 0 -44.167 8.16699 -60.5 24.5s-24.5 36.5 -24.5 60.5z" />
    <glyph glyph-name="underscore" unicode="_" horiz-adv-x="574" 
d="M40 180c0 23.333 8.16699 43.5 24.5 60.5s36.5 25.5 60.5 25.5h323c23.333 0 43.5 -8.5 60.5 -25.5s25.5 -37.167 25.5 -60.5c0 -24 -8.5 -44.167 -25.5 -60.5s-37.167 -24.5 -60.5 -24.5h-323c-24 0 -44.167 8.16699 -60.5 24.5s-24.5 36.5 -24.5 60.5z" />
    <glyph glyph-name="grave" unicode="`" horiz-adv-x="319" 
d="M99 797c22 9.33301 43.834 9.33203 65.501 -0.000976562s37.167 -24.666 46.5 -45.999l54 -114c9.33301 -22.667 9.66602 -44.667 0.999023 -66s-24 -36.666 -46 -45.999c-21.333 -9.33301 -43 -9.66602 -65 -0.999023s-37.667 24 -47 46l-54 114
c-9.33301 21.333 -9.5 43.166 -0.5 65.499s24.167 38.166 45.5 47.499z" />
    <glyph glyph-name="a" unicode="a" horiz-adv-x="681" 
d="M341 696c84.667 -2 155.169 -31.498 211.502 -88.498s85.833 -125.833 88.5 -206.5v-222c0 -24 -8.16699 -44.167 -24.5 -60.5s-36.5 -24.5 -60.5 -24.5c-23.333 0 -43.5 8.16699 -60.5 24.5s-25.5 36.5 -25.5 60.5v216c0 35.333 -12.667 65.833 -38 91.5
s-55.666 38.5 -90.999 38.5c-36 0 -66.667 -12.833 -92 -38.5s-38 -56.167 -38 -91.5s12.667 -65.833 38 -91.5s56 -38.5 92 -38.5c22.667 0 42.5 -8.16699 59.5 -24.5s25.5 -36.5 25.5 -60.5c0 -23.333 -8.33301 -43.333 -25 -60s-36.667 -25.334 -60 -26.001
c-84.667 1.33301 -155.334 30.666 -212.001 87.999s-86.334 128.333 -89.001 213c2.66699 84.667 32.167 155.5 88.5 212.5s127.166 86.5 212.499 88.5z" />
    <glyph glyph-name="b" unicode="b" horiz-adv-x="681" 
d="M338 94c-83.333 2 -153.168 31.498 -209.501 88.498s-85.833 125.833 -88.5 206.5v329c0 24 8.16699 44.167 24.5 60.5s36.5 24.5 60.5 24.5c23.333 0 43.5 -8.16699 60.5 -24.5s25.5 -36.5 25.5 -60.5v-323c0 -35.333 12.667 -65.833 38 -91.5s56 -38.5 92 -38.5
c35.333 0 65.666 12.833 90.999 38.5s38 56.167 38 91.5s-12.667 65.833 -38 91.5s-56 38.5 -92 38.5c-22.667 0 -42.5 8.16699 -59.5 24.5s-25.5 36.5 -25.5 60.5c0 23.333 8.33301 43.333 25 60s36.667 25.334 60 26.001c84.667 -1.33301 155.334 -30.666 212.001 -87.999
s86.334 -128.333 89.001 -213c-2.66699 -84.667 -32.167 -155.5 -88.5 -212.5s-127.833 -86.5 -214.5 -88.5z" />
    <glyph glyph-name="c" unicode="c" horiz-adv-x="681" 
d="M641 395c-1.33301 -83.333 -30.501 -153.831 -87.501 -211.498s-128.167 -87.5 -213.5 -89.5c-84.667 2 -155.167 31.5 -211.5 88.5s-85.833 130.167 -88.5 219.5c2.66699 80 32.334 148.667 89.001 206s127.334 86.666 212.001 87.999
c23.333 -0.666992 43.333 -9.33398 60 -26.001s25 -36.667 25 -60c0 -24 -8.5 -44.167 -25.5 -60.5s-36.833 -24.5 -59.5 -24.5c-36 0 -66.667 -12.833 -92 -38.5s-38 -56.167 -38 -91.5s12.667 -65.833 38 -91.5s56 -38.5 92 -38.5c35.333 0 65.666 12.833 90.999 38.5
s38 56.167 38 91.5c0 24 8.5 44.167 25.5 60.5s37.167 24.5 60.5 24.5c24 0 44.167 -8.16699 60.5 -24.5s24.5 -36.5 24.5 -60.5z" />
    <glyph glyph-name="d" unicode="d" horiz-adv-x="681" 
d="M340 94c-84.667 2 -155.169 31.502 -211.502 88.502s-85.833 127.833 -88.5 212.5c2.66699 84.667 32.334 155.667 89.001 213s127.334 86.666 212.001 87.999c23.333 -0.666992 43.333 -9.33398 60 -26.001s25 -36.667 25 -60c0 -24 -8.5 -44.167 -25.5 -60.5
s-36.833 -24.5 -59.5 -24.5c-36 0 -66.667 -12.833 -92 -38.5s-38 -56.167 -38 -91.5s12.667 -65.833 38 -91.5s56 -38.5 92 -38.5c35.333 0 65.666 12.833 90.999 38.5s38 56.167 38 91.5v323c0 24 8.5 44.167 25.5 60.5s37.167 24.5 60.5 24.5
c24 0 44.167 -8.16699 60.5 -24.5s24.5 -36.5 24.5 -60.5v-329c-2.66699 -80.667 -32.167 -149.5 -88.5 -206.5s-127.166 -86.5 -212.499 -88.5z" />
    <glyph glyph-name="e" unicode="e" horiz-adv-x="681" 
d="M641 395c0 -24 -8.16602 -44.165 -24.499 -60.498s-36.5 -24.5 -60.5 -24.5c-23.333 0 -43.5 8.16699 -60.5 24.5s-25.5 36.5 -25.5 60.5c0 35.333 -12.667 65.833 -38 91.5s-55.666 38.5 -90.999 38.5c-36 0 -66.667 -12.833 -92 -38.5s-38 -56.167 -38 -91.5
s12.667 -65.833 38 -91.5s56 -38.5 92 -38.5c22.667 0 42.5 -8.16699 59.5 -24.5s25.5 -36.5 25.5 -60.5c0 -23.333 -8.33301 -43.333 -25 -60s-36.667 -25.334 -60 -26.001c-84.667 1.33301 -155.334 30.666 -212.001 87.999s-86.334 128.333 -89.001 213
c2.66699 84.667 32.167 155.5 88.5 212.5s126.833 86.5 211.5 88.5c85.333 -2 156.5 -31.833 213.5 -89.5s86.167 -128.167 87.5 -211.5zM256.001 395.002c0 23.333 8.16699 43.5 24.5 60.5s36.5 25.5 60.5 25.5c23.333 0 43.5 -8.5 60.5 -25.5s25.5 -37.167 25.5 -60.5
c0 -24 -8.5 -44.167 -25.5 -60.5s-37.167 -24.5 -60.5 -24.5c-24 0 -44.167 8.16699 -60.5 24.5s-24.5 36.5 -24.5 60.5z" />
    <glyph glyph-name="f" unicode="f" horiz-adv-x="466" 
d="M341 804c23.333 -0.666992 43.3311 -9.33203 59.998 -25.999s25 -36.667 25 -60c0 -24 -8.5 -44.167 -25.5 -60.5s-36.833 -24.5 -59.5 -24.5c-36 0 -66.667 -12.833 -92 -38.5s-38 -56.167 -38 -91.5v-22h129c23.333 0 43.5 -8.5 60.5 -25.5s25.5 -37.167 25.5 -60.5
c0 -24 -8.5 -44.167 -25.5 -60.5s-37.167 -24.5 -60.5 -24.5h-129v-130c0 -24 -8.5 -44.167 -25.5 -60.5s-37.167 -24.5 -60.5 -24.5c-24 0 -44.167 8.16699 -60.5 24.5s-24.5 36.5 -24.5 60.5v329c2.66699 80.667 32.334 149.667 89.001 207s127.334 86.666 212.001 87.999
z" />
    <glyph glyph-name="g" unicode="g" horiz-adv-x="681" 
d="M341 696c84.667 -2 155.171 -31.5 211.504 -88.5s85.833 -125.833 88.5 -206.5v-229c-2.66699 -80 -32.334 -148.667 -89.001 -206s-127.334 -86.666 -212.001 -87.999c-23.333 0.666992 -43.333 9.33398 -60 26.001s-25 36.667 -25 60c0 24 8.5 44.167 25.5 60.5
s36.833 24.5 59.5 24.5c36 0 66.667 12.833 92 38.5s38 56.167 38 91.5v216c0 35.333 -12.667 65.833 -38 91.5s-55.666 38.5 -90.999 38.5c-36 0 -66.667 -12.833 -92 -38.5s-38 -56.167 -38 -91.5s12.667 -65.833 38 -91.5s56 -38.5 92 -38.5
c22.667 0 42.5 -8.16699 59.5 -24.5s25.5 -36.5 25.5 -60.5c0 -23.333 -8.33301 -43.333 -25 -60s-36.667 -25.334 -60 -26.001c-84.667 1.33301 -155.334 30.666 -212.001 87.999s-86.334 128.333 -89.001 213c2.66699 84.667 32.167 155.5 88.5 212.5
s127.166 86.5 212.499 88.5z" />
    <glyph glyph-name="h" unicode="h" horiz-adv-x="680" 
d="M125 804c23.333 0 43.5 -8.5 60.5 -25.5s25.5 -37.167 25.5 -60.5v-538c0 -24 -8.5 -44.167 -25.5 -60.5s-37.167 -24.5 -60.5 -24.5c-24 0 -44.167 8.16699 -60.5 24.5s-24.5 36.5 -24.5 60.5v538c0 23.333 8.16699 43.5 24.5 60.5s36.5 25.5 60.5 25.5zM339 525
c-22.667 0 -42.502 8.16504 -59.502 24.498s-25.5 36.5 -25.5 60.5c0 23.333 8.33301 43.333 25 60s36.667 25.334 60 26.001c84.667 -1.33301 155.334 -30.666 212.001 -87.999s86.334 -126.333 89.001 -207v-222c0 -24 -8.16699 -44.167 -24.5 -60.5
s-36.5 -24.5 -60.5 -24.5c-23.333 0 -43.5 8.16699 -60.5 24.5s-25.5 36.5 -25.5 60.5v216c0 35.333 -12.667 65.833 -38 91.5s-56 38.5 -92 38.5z" />
    <glyph glyph-name="i" unicode="i" horiz-adv-x="251" 
d="M125 94c-24 0 -44.167 8.5 -60.5 25.5s-24.5 37.167 -24.5 60.5v269c0 24 8.16699 44.167 24.5 60.5s36.5 24.5 60.5 24.5c23.333 0 43.5 -8.16699 60.5 -24.5s25.5 -36.5 25.5 -60.5v-269c0 -23.333 -8.5 -43.5 -25.5 -60.5s-37.167 -25.5 -60.5 -25.5zM40 665
c0 24 8.16699 44.167 24.5 60.5s36.5 24.5 60.5 24.5c23.333 0 43.5 -8.16699 60.5 -24.5s25.5 -36.5 25.5 -60.5c0 -23.333 -8.5 -43.5 -25.5 -60.5s-37.167 -25.5 -60.5 -25.5c-24 0 -44.167 8.5 -60.5 25.5s-24.5 37.167 -24.5 60.5z" />
    <glyph glyph-name="j" unicode="j" horiz-adv-x="466" 
d="M255 665c0 24 8.16699 44.167 24.5 60.5s36.5 24.5 60.5 24.5c23.333 0 43.5 -8.16699 60.5 -24.5s25.5 -36.5 25.5 -60.5c0 -23.333 -8.5 -43.5 -25.5 -60.5s-37.167 -25.5 -60.5 -25.5c-24 0 -44.167 8.5 -60.5 25.5s-24.5 37.167 -24.5 60.5zM255 449
c0 24 8.16895 44.165 24.502 60.498s36.5 24.5 60.5 24.5c23.333 0 43.5 -8.16699 60.5 -24.5s25.5 -36.5 25.5 -60.5v-275c-2.66699 -80.667 -32.334 -149.667 -89.001 -207s-127.334 -86.666 -212.001 -87.999c-23.333 0.666992 -43.333 9.33398 -60 26.001
s-25 36.667 -25 60c0 24 8.5 44.167 25.5 60.5s36.833 24.5 59.5 24.5c36 0 66.667 12.833 92 38.5s38 56.167 38 91.5v269z" />
    <glyph glyph-name="k" unicode="k" horiz-adv-x="681" 
d="M125 804c23.333 0 43.5 -8.5 60.5 -25.5s25.5 -37.167 25.5 -60.5v-538c0 -24 -8.5 -44.167 -25.5 -60.5s-37.167 -24.5 -60.5 -24.5c-24 0 -44.167 8.16699 -60.5 24.5s-24.5 36.5 -24.5 60.5v538c0 23.333 8.16699 43.5 24.5 60.5s36.5 25.5 60.5 25.5zM641 611
c-1.33301 -83.333 -32 -155 -92 -215c60 -60.667 90.667 -132.667 92 -216c0 -24 -8.16699 -44.167 -24.5 -60.5s-36.5 -24.5 -60.5 -24.5c-23.333 0 -43.5 8.16699 -60.5 24.5s-25.5 36.5 -25.5 60.5c0 35.333 -12.667 65.833 -38 91.5s-56 38.5 -92 38.5
c-22.667 0 -42.5 8.16699 -59.5 24.5s-25.5 36.5 -25.5 60.5c0 24.667 8.5 45.167 25.5 61.5s36.833 24.5 59.5 24.5c36 0 66.667 12.833 92 38.5s38 56.167 38 91.5c0 24 8.5 44.167 25.5 60.5s37.167 24.5 60.5 24.5c24 0 44.167 -8.16699 60.5 -24.5
s24.5 -36.5 24.5 -60.5z" />
    <glyph glyph-name="l" unicode="l" horiz-adv-x="251" 
d="M125 804c23.333 0 43.5 -8.5 60.5 -25.5s25.5 -37.167 25.5 -60.5v-538c0 -24 -8.5 -44.167 -25.5 -60.5s-37.167 -24.5 -60.5 -24.5c-24 0 -44.167 8.16699 -60.5 24.5s-24.5 36.5 -24.5 60.5v538c0 23.333 8.16699 43.5 24.5 60.5s36.5 25.5 60.5 25.5z" />
    <glyph glyph-name="m" unicode="m" horiz-adv-x="789" 
d="M393 481c23.333 0 43.5 -8.5 60.5 -25.5s25.5 -37.167 25.5 -60.5v-215c0 -24 -8.5 -44.167 -25.5 -60.5s-37.167 -24.5 -60.5 -24.5c-24 0 -44.167 8.16699 -60.5 24.5s-24.5 36.5 -24.5 60.5v215c0 23.333 8.16699 43.5 24.5 60.5s36.5 25.5 60.5 25.5zM749 180
c0 -24 -8.5 -44.167 -25.5 -60.5s-37.167 -24.5 -60.5 -24.5c-24 0 -44.167 8.16699 -60.5 24.5s-24.5 36.5 -24.5 60.5v215c0 35.333 -12.667 65.833 -38 91.5s-56 38.5 -92 38.5h-107c-36 0 -66.667 -12.833 -92 -38.5s-38 -56.167 -38 -91.5v-215
c0 -24 -8.5 -44.167 -25.5 -60.5s-37.167 -24.5 -60.5 -24.5c-24 0 -44.167 8.16699 -60.5 24.5s-24.5 36.5 -24.5 60.5v221c2.66699 80.667 32 149.334 88 206.001s125 86.334 207 89.001h119c82 -2.66699 151 -32.334 207 -89.001s85.333 -125.334 88 -206.001v-221z" />
    <glyph glyph-name="n" unicode="n" horiz-adv-x="681" 
d="M40 395c1.33301 83.333 30.498 153.833 87.498 211.5s127.167 87.5 210.5 89.5c86.667 -2 158.167 -31.5 214.5 -88.5s85.833 -125.833 88.5 -206.5v-222c0 -24 -8.16699 -44.167 -24.5 -60.5s-36.5 -24.5 -60.5 -24.5c-23.333 0 -43.5 8.16699 -60.5 24.5
s-25.5 36.5 -25.5 60.5v216c0 35.333 -12.667 65.833 -38 91.5s-55.666 38.5 -90.999 38.5c-36 0 -66.167 -12.167 -90.5 -36.5s-37.166 -55.5 -38.499 -93.5v-215c0 -24 -8.5 -44.167 -25.5 -60.5s-37.167 -24.5 -60.5 -24.5c-24 0 -44.167 8.16699 -60.5 24.5
s-24.5 36.5 -24.5 60.5z" />
    <glyph glyph-name="o" unicode="o" horiz-adv-x="682" 
d="M341 696c84.667 -2 155.167 -31.5 211.5 -88.5s85.833 -127.833 88.5 -212.5c-2.66699 -84.667 -32.167 -155.5 -88.5 -212.5s-126.833 -86.5 -211.5 -88.5c-85.333 2 -156.166 31.5 -212.499 88.5s-85.833 127.833 -88.5 212.5c2.66699 84.667 32.167 155.5 88.5 212.5
s127.166 86.5 212.499 88.5zM470 395c0 35.333 -12.667 65.833 -38 91.5s-55.666 38.5 -90.999 38.5c-36 0 -66.667 -12.833 -92 -38.5s-38 -56.167 -38 -91.5s12.667 -65.833 38 -91.5s56 -38.5 92 -38.5c35.333 0 65.666 12.833 90.999 38.5s38 56.167 38 91.5z" />
    <glyph glyph-name="p" unicode="p" horiz-adv-x="681" 
d="M343 696c83.333 -2 153.168 -31.502 209.501 -88.502s85.833 -127.833 88.5 -212.5c-2.66699 -84.667 -32.334 -155.667 -89.001 -213s-127.334 -86.666 -212.001 -87.999c-23.333 0.666992 -43.333 9.33398 -60 26.001s-25 36.667 -25 60c0 24 8.5 44.167 25.5 60.5
s36.833 24.5 59.5 24.5c36 0 66.667 12.833 92 38.5s38 56.167 38 91.5s-12.667 65.833 -38 91.5s-55.666 38.5 -90.999 38.5c-36 0 -66.667 -12.833 -92 -38.5s-38 -56.167 -38 -91.5v-432c0 -24 -8.5 -44.167 -25.5 -60.5s-37.167 -24.5 -60.5 -24.5
c-24 0 -44.167 8.16699 -60.5 24.5s-24.5 36.5 -24.5 60.5v438c2.66699 80.667 32.167 149.5 88.5 206.5s127.833 86.5 214.5 88.5z" />
    <glyph glyph-name="q" unicode="q" horiz-adv-x="682" 
d="M641 395c0 -24 -8.16699 -44.1699 -24.5 -60.5029s-36.5 -24.5 -60.5 -24.5c-23.333 0 -43.5 8.16699 -60.5 24.5s-25.5 36.5 -25.5 60.5c0 35.333 -12.667 65.833 -38 91.5s-55.666 38.5 -90.999 38.5c-36 0 -66.667 -12.833 -92 -38.5s-38 -56.167 -38 -91.5
s12.667 -65.833 38 -91.5s58 -38.5 98 -38.5c82 -2.66699 151.333 -32.667 208 -90s85.667 -127.666 87 -210.999c0 -24 -8.16699 -44.167 -24.5 -60.5s-36.5 -24.5 -60.5 -24.5c-23.333 0 -43.5 8.16699 -60.5 24.5s-25.5 36.5 -25.5 60.5
c0 35.333 -12.667 65.833 -38 91.5s-56 38.5 -92 38.5c-86 2.66699 -157 32.334 -213 89.001s-85.333 127.334 -88 212.001c2.66699 84.667 32.167 155.5 88.5 212.5s127.166 86.5 212.499 88.5c84.667 -2 155.5 -31.833 212.5 -89.5s86.167 -128.167 87.5 -211.5z" />
    <glyph glyph-name="r" unicode="r" horiz-adv-x="681" 
d="M641 395c0 -24 -8.16699 -44.167 -24.5 -60.5s-36.5 -24.5 -60.5 -24.5c-23.333 0 -43.5 8.16699 -60.5 24.5s-25.5 36.5 -25.5 60.5c0 35.333 -12.667 65.833 -38 91.5s-55.666 38.5 -90.999 38.5c-36 0 -66.667 -12.833 -92 -38.5s-38 -56.167 -38 -91.5v-216
c0 -24 -8.5 -44.167 -25.5 -60.5s-37.167 -24.5 -60.5 -24.5c-24 0 -44.167 8.16699 -60.5 24.5s-24.5 36.5 -24.5 60.5v222c2.66699 80.667 32.167 149.5 88.5 206.5s127.166 86.5 212.499 88.5c84.667 -2 155.5 -31.833 212.5 -89.5s86.167 -128.167 87.5 -211.5z" />
    <glyph glyph-name="s" unicode="s" horiz-adv-x="681" 
d="M40 395c1.33301 83.333 30.333 153.667 87 211s126 87.333 208 90h221c24 0 44.167 -8.16699 60.5 -24.5s24.5 -36.5 24.5 -60.5c0 -23.333 -8.16699 -43.5 -24.5 -60.5s-36.5 -25.5 -60.5 -25.5h-215c-36 0 -66.667 -12.833 -92 -38.5s-38 -56.167 -38 -91.5
c0 -24 -8.5 -44.167 -25.5 -60.5s-37.167 -24.5 -60.5 -24.5c-24 0 -44.167 8.16699 -60.5 24.5s-24.5 36.5 -24.5 60.5zM641 396.001c-1.33301 -83.333 -30.333 -153.667 -87 -211s-126 -87.333 -208 -90h-221c-24 0 -44.167 8.16699 -60.5 24.5s-24.5 36.5 -24.5 60.5
c0 23.333 8.16699 43.5 24.5 60.5s36.5 25.5 60.5 25.5h215c36 0 66.667 12.833 92 38.5s38 56.167 38 91.5c0 24 8.5 44.167 25.5 60.5s37.167 24.5 60.5 24.5c24 0 44.167 -8.16699 60.5 -24.5s24.5 -36.5 24.5 -60.5zM255 395c0 23.333 8.16699 43.5 24.5 60.5
s36.5 25.5 60.5 25.5c23.333 0 43.5 -8.5 60.5 -25.5s25.5 -37.167 25.5 -60.5c0 -24 -8.5 -44.167 -25.5 -60.5s-37.167 -24.5 -60.5 -24.5c-24 0 -44.167 8.16699 -60.5 24.5s-24.5 36.5 -24.5 60.5z" />
    <glyph glyph-name="t" unicode="t" horiz-adv-x="466" 
d="M341 265c22.667 0 42.502 -8.16504 59.502 -24.498s25.5 -36.5 25.5 -60.5c0 -23.333 -8.33301 -43.333 -25 -60s-36.667 -25.334 -60 -26.001c-84.667 1.33301 -155.334 30.666 -212.001 87.999s-86.334 126.333 -89.001 207v329c0 24 8.16699 44.167 24.5 60.5
s36.5 24.5 60.5 24.5c23.333 0 43.5 -8.16699 60.5 -24.5s25.5 -36.5 25.5 -60.5v-22h129c23.333 0 43.5 -8.16699 60.5 -24.5s25.5 -36.5 25.5 -60.5c0 -23.333 -8.5 -43.5 -25.5 -60.5s-37.167 -25.5 -60.5 -25.5h-129v-130c0 -35.333 12.667 -65.833 38 -91.5
s56 -38.5 92 -38.5z" />
    <glyph glyph-name="u" unicode="u" horiz-adv-x="681" 
d="M40 395l1.00098 215c0 24 8.16699 44.167 24.5 60.5s36.5 24.5 60.5 24.5c23.333 0 43.5 -8.16699 60.5 -24.5s25.5 -36.5 25.5 -60.5v-215c1.33301 -38.667 14.166 -70 38.499 -94s54.5 -36 90.5 -36c35.333 0 65.666 12.833 90.999 38.5s38 56.167 38 91.5v216
c0 24 8.5 44.167 25.5 60.5s37.167 24.5 60.5 24.5c24 0 44.167 -8.16699 60.5 -24.5s24.5 -36.5 24.5 -60.5v-222c-2.66699 -80.667 -32.167 -149.5 -88.5 -206.5s-127.166 -86.5 -212.499 -88.5c-84.667 2 -155.5 31.833 -212.5 89.5s-86.167 128.167 -87.5 211.5z" />
    <glyph glyph-name="v" unicode="v" horiz-adv-x="681" 
d="M125 696c23.333 0 43.5 -8.5 60.5 -25.5s25.5 -37.167 25.5 -60.5v-344h129c36 0 66.667 12.833 92 38.5s38 56.167 38 91.5v214c0 24 8.16699 44.167 24.5 60.5s36.5 24.5 60.5 24.5c23.333 0 43.5 -8.16699 60.5 -24.5s25.5 -36.5 25.5 -60.5v-222
c-3.33301 -80 -32.833 -148.167 -88.5 -204.5s-124.5 -85.833 -206.5 -88.5h-221c-24 0 -44.167 8.16699 -60.5 24.5s-24.5 36.5 -24.5 60.5v430c0 23.333 8.16699 43.5 24.5 60.5s36.5 25.5 60.5 25.5z" />
    <glyph glyph-name="w" unicode="w" horiz-adv-x="789" 
d="M393 309c-24 0 -44.167 8.5 -60.5 25.5s-24.5 37.167 -24.5 60.5v215c0 24 8.16699 44.167 24.5 60.5s36.5 24.5 60.5 24.5c23.333 0 43.5 -8.16699 60.5 -24.5s25.5 -36.5 25.5 -60.5v-215c0 -23.333 -8.5 -43.5 -25.5 -60.5s-37.167 -25.5 -60.5 -25.5zM578 610
c0 24 8.16699 44.167 24.5 60.5s36.5 24.5 60.5 24.5c23.333 0 43.5 -8.16699 60.5 -24.5s25.5 -36.5 25.5 -60.5v-215c-2.66699 -84.667 -32 -155.334 -88 -212.001s-125 -86.334 -207 -89.001h-119c-82 2.66699 -151 32.334 -207 89.001s-85.333 127.334 -88 212.001v215
c0 24 8.16699 44.167 24.5 60.5s36.5 24.5 60.5 24.5c23.333 0 43.5 -8.16699 60.5 -24.5s25.5 -36.5 25.5 -60.5v-215c0 -35.333 12.667 -65.833 38 -91.5s56 -38.5 92 -38.5h107c36 0 66.667 12.833 92 38.5s38 56.167 38 91.5v215z" />
    <glyph glyph-name="x" unicode="x" horiz-adv-x="681" 
d="M641 611c-1.33301 -83.333 -32 -155 -92 -215c60 -60.667 90.667 -132.667 92 -216c0 -24 -8.16699 -44.167 -24.5 -60.5s-36.5 -24.5 -60.5 -24.5c-23.333 0 -43.5 8.16699 -60.5 24.5s-25.5 36.5 -25.5 60.5c0 35.333 -12.667 65.833 -38 91.5
s-55.666 38.5 -90.999 38.5c-36 0 -66.667 -12.833 -92 -38.5s-38 -56.167 -38 -91.5c0 -24 -8.5 -44.167 -25.5 -60.5s-37.167 -24.5 -60.5 -24.5c-24 0 -44.167 8.16699 -60.5 24.5s-24.5 36.5 -24.5 60.5c1.33301 83.333 32 155.333 92 216
c-60 60 -90.667 131.667 -92 215c0 24 8.16699 44.167 24.5 60.5s36.5 24.5 60.5 24.5c23.333 0 43.5 -8.16699 60.5 -24.5s25.5 -36.5 25.5 -60.5c0 -35.333 12.667 -65.833 38 -91.5s56 -38.5 92 -38.5c35.333 0 65.666 12.833 90.999 38.5s38 56.167 38 91.5
c0 24 8.5 44.167 25.5 60.5s37.167 24.5 60.5 24.5c24 0 44.167 -8.16699 60.5 -24.5s24.5 -36.5 24.5 -60.5z" />
    <glyph glyph-name="y" unicode="y" horiz-adv-x="680" 
d="M339 -122c-23.333 0.666992 -43.3311 9.33203 -59.998 25.999s-25 36.667 -25 60c0 24 8.5 44.167 25.5 60.5s36.833 24.5 59.5 24.5c36 0 66.667 12.833 92 38.5s38 56.167 38 91.5v432c0 24 8.16699 44.167 24.5 60.5s36.5 24.5 60.5 24.5
c23.333 0 43.5 -8.16699 60.5 -24.5s25.5 -36.5 25.5 -60.5v-439c-2.66699 -80 -32.334 -148.667 -89.001 -206s-127.334 -86.666 -212.001 -87.999zM341.002 318.998c22.667 0 42.502 -8.16504 59.502 -24.498s25.5 -36.5 25.5 -60.5c0 -23.333 -8.33301 -43.333 -25 -60
s-36.667 -25.334 -60 -26.001c-84.667 1.33301 -155.334 30.666 -212.001 87.999s-86.334 126.333 -89.001 207v168c0 24 8.16699 44.167 24.5 60.5s36.5 24.5 60.5 24.5c23.333 0 43.5 -8.16699 60.5 -24.5s25.5 -36.5 25.5 -60.5v-162c0 -35.333 12.667 -65.833 38 -91.5
s56 -38.5 92 -38.5z" />
    <glyph glyph-name="z" unicode="z" horiz-adv-x="681" 
d="M40 610c0 23.333 8.16504 43.5 24.498 60.5s36.5 25.5 60.5 25.5h430h1c24 0 44.167 -8.16699 60.5 -24.5s24.5 -39.166 24.5 -68.499c-3.33301 -80 -32.666 -148 -87.999 -204s-126 -85.667 -212 -89c-36 0 -68.333 -14.667 -97 -44h311c23.333 0 43.5 -8.5 60.5 -25.5
s25.5 -37.167 25.5 -60.5c0 -24 -8.5 -44.167 -25.5 -60.5s-37.167 -24.5 -60.5 -24.5h-430c-24 0 -44.167 8.16699 -60.5 24.5s-24.5 38.5 -24.5 66.5c2.66699 80.667 31.834 149.167 87.501 205.5s126.5 86.166 212.5 89.499c36 0 68.333 14.667 97 44h-312
c-24 0 -44.167 8.16699 -60.5 24.5s-24.5 36.5 -24.5 60.5z" />
    <glyph glyph-name="braceleft" unicode="{" horiz-adv-x="573" 
d="M40 448c0 23.333 8.16602 43.5029 24.499 60.5029s36.5 25.5 60.5 25.5h24c7.33301 70 37.833 132.167 91.5 186.5s122.834 82.166 207.501 83.499c23.333 -0.666992 43.333 -9.33398 60 -26.001s25 -36.667 25 -60c0 -24 -8.5 -44.167 -25.5 -60.5
s-36.833 -24.5 -59.5 -24.5c-36 0 -66.667 -12.833 -92 -38.5s-38 -56.167 -38 -91.5v-107c0 -35.333 12.667 -65.833 38 -91.5s56 -38.5 92 -38.5c22.667 0 42.5 -8.16699 59.5 -24.5s25.5 -36.5 25.5 -60.5c0 -23.333 -8.33301 -43.333 -25 -60
s-36.667 -25.334 -60 -26.001c-84.667 1.33301 -153.667 29 -207 83s-84 115.667 -92 185h-24c-24 0 -44.167 8.16699 -60.5 24.5s-24.5 36.5 -24.5 60.5z" />
    <glyph glyph-name="bar" unicode="|" horiz-adv-x="251" 
d="M125 804c23.333 0 43.5 -8.5 60.5 -25.5s25.5 -37.167 25.5 -60.5v-538c0 -24 -8.5 -44.167 -25.5 -60.5s-37.167 -24.5 -60.5 -24.5c-24 0 -44.167 8.16699 -60.5 24.5s-24.5 36.5 -24.5 60.5v538c0 23.333 8.16699 43.5 24.5 60.5s36.5 25.5 60.5 25.5z" />
    <glyph glyph-name="braceright" unicode="}" horiz-adv-x="573" 
d="M533 448c0 -24 -8.16797 -44.1699 -24.501 -60.5029s-36.5 -24.5 -60.5 -24.5h-24c-8 -69.333 -38.667 -131 -92 -185s-122.333 -81.667 -207 -83c-23.333 0.666992 -43.333 9.33398 -60 26.001s-25 36.667 -25 60c0 24 8.5 44.167 25.5 60.5s36.833 24.5 59.5 24.5
c36 0 66.667 12.833 92 38.5s38 56.167 38 91.5v107c0 35.333 -12.667 65.833 -38 91.5s-56 38.5 -92 38.5c-22.667 0 -42.5 8.16699 -59.5 24.5s-25.5 36.5 -25.5 60.5c0 23.333 8.33301 43.333 25 60s36.667 25.334 60 26.001
c84.667 -1.33301 153.834 -29.166 207.501 -83.499s84.167 -116.5 91.5 -186.5h24c24 0 44.167 -8.5 60.5 -25.5s24.5 -37.167 24.5 -60.5z" />
    <glyph glyph-name="asciitilde" unicode="~" horiz-adv-x="574" 
d="M40 718c0 23.333 8.16699 43.5 24.5 60.5s36.5 25.5 60.5 25.5h323c23.333 0 43.5 -8.5 60.5 -25.5s25.5 -37.167 25.5 -60.5c0 -24 -8.5 -44.167 -25.5 -60.5s-37.167 -24.5 -60.5 -24.5h-323c-24 0 -44.167 8.16699 -60.5 24.5s-24.5 36.5 -24.5 60.5z" />
    <glyph glyph-name="uni00A0" unicode="&#xa0;" 
 />
    <glyph glyph-name="exclamdown" unicode="&#xa1;" 
 />
    <glyph glyph-name="cent" unicode="&#xa2;" 
 />
    <glyph glyph-name="sterling" unicode="&#xa3;" 
 />
    <glyph glyph-name="currency" unicode="&#xa4;" 
 />
    <glyph glyph-name="yen" unicode="&#xa5;" 
 />
    <glyph glyph-name="brokenbar" unicode="&#xa6;" 
 />
    <glyph glyph-name="section" unicode="&#xa7;" 
 />
    <glyph glyph-name="dieresis" unicode="&#xa8;" 
 />
    <glyph glyph-name="copyright" unicode="&#xa9;" 
 />
    <glyph glyph-name="ordfeminine" unicode="&#xaa;" 
 />
    <glyph glyph-name="guillemotleft" unicode="&#xab;" 
 />
    <glyph glyph-name="logicalnot" unicode="&#xac;" 
 />
    <glyph glyph-name="uni00AD" unicode="&#xad;" 
 />
    <glyph glyph-name="registered" unicode="&#xae;" 
 />
    <glyph glyph-name="macron" unicode="&#xaf;" 
 />
    <glyph glyph-name="degree" unicode="&#xb0;" 
 />
    <glyph glyph-name="plusminus" unicode="&#xb1;" 
 />
    <glyph glyph-name="uni00B2" unicode="&#xb2;" 
 />
    <glyph glyph-name="uni00B3" unicode="&#xb3;" 
 />
    <glyph glyph-name="acute" unicode="&#xb4;" 
 />
    <glyph glyph-name="uni00B5" unicode="&#xb5;" 
 />
    <glyph glyph-name="paragraph" unicode="&#xb6;" 
 />
    <glyph glyph-name="periodcentered" unicode="&#xb7;" 
 />
    <glyph glyph-name="cedilla" unicode="&#xb8;" 
 />
    <glyph glyph-name="uni00B9" unicode="&#xb9;" 
 />
    <glyph glyph-name="ordmasculine" unicode="&#xba;" 
 />
    <glyph glyph-name="guillemotright" unicode="&#xbb;" 
 />
    <glyph glyph-name="onequarter" unicode="&#xbc;" 
 />
    <glyph glyph-name="onehalf" unicode="&#xbd;" 
 />
    <glyph glyph-name="threequarters" unicode="&#xbe;" 
 />
    <glyph glyph-name="questiondown" unicode="&#xbf;" 
 />
    <glyph glyph-name="Agrave" unicode="&#xc0;" 
 />
    <glyph glyph-name="Aacute" unicode="&#xc1;" 
 />
    <glyph glyph-name="Acircumflex" unicode="&#xc2;" 
 />
    <glyph glyph-name="Atilde" unicode="&#xc3;" 
 />
    <glyph glyph-name="Adieresis" unicode="&#xc4;" 
 />
    <glyph glyph-name="Aring" unicode="&#xc5;" 
 />
    <glyph glyph-name="AE" unicode="&#xc6;" 
 />
    <glyph glyph-name="Ccedilla" unicode="&#xc7;" 
 />
    <glyph glyph-name="Egrave" unicode="&#xc8;" 
 />
    <glyph glyph-name="Eacute" unicode="&#xc9;" 
 />
    <glyph glyph-name="Ecircumflex" unicode="&#xca;" 
 />
    <glyph glyph-name="Edieresis" unicode="&#xcb;" 
 />
    <glyph glyph-name="Igrave" unicode="&#xcc;" 
 />
    <glyph glyph-name="Iacute" unicode="&#xcd;" 
 />
    <glyph glyph-name="Icircumflex" unicode="&#xce;" 
 />
    <glyph glyph-name="Idieresis" unicode="&#xcf;" 
 />
    <glyph glyph-name="Eth" unicode="&#xd0;" 
 />
    <glyph glyph-name="Ntilde" unicode="&#xd1;" 
 />
    <glyph glyph-name="Ograve" unicode="&#xd2;" 
 />
    <glyph glyph-name="Oacute" unicode="&#xd3;" 
 />
    <glyph glyph-name="Ocircumflex" unicode="&#xd4;" 
 />
    <glyph glyph-name="Otilde" unicode="&#xd5;" 
 />
    <glyph glyph-name="Odieresis" unicode="&#xd6;" 
 />
    <glyph glyph-name="multiply" unicode="&#xd7;" 
 />
    <glyph glyph-name="Oslash" unicode="&#xd8;" 
 />
    <glyph glyph-name="Ugrave" unicode="&#xd9;" 
 />
    <glyph glyph-name="Uacute" unicode="&#xda;" 
 />
    <glyph glyph-name="Ucircumflex" unicode="&#xdb;" 
 />
    <glyph glyph-name="Udieresis" unicode="&#xdc;" 
 />
    <glyph glyph-name="Yacute" unicode="&#xdd;" 
 />
    <glyph glyph-name="Thorn" unicode="&#xde;" 
 />
    <glyph glyph-name="germandbls" unicode="&#xdf;" 
 />
    <glyph glyph-name="agrave" unicode="&#xe0;" 
 />
    <glyph glyph-name="aacute" unicode="&#xe1;" 
 />
    <glyph glyph-name="acircumflex" unicode="&#xe2;" 
 />
    <glyph glyph-name="atilde" unicode="&#xe3;" 
 />
    <glyph glyph-name="adieresis" unicode="&#xe4;" 
 />
    <glyph glyph-name="aring" unicode="&#xe5;" 
 />
    <glyph glyph-name="ae" unicode="&#xe6;" 
 />
    <glyph glyph-name="ccedilla" unicode="&#xe7;" 
 />
    <glyph glyph-name="egrave" unicode="&#xe8;" 
 />
    <glyph glyph-name="eacute" unicode="&#xe9;" 
 />
    <glyph glyph-name="ecircumflex" unicode="&#xea;" 
 />
    <glyph glyph-name="edieresis" unicode="&#xeb;" 
 />
    <glyph glyph-name="igrave" unicode="&#xec;" 
 />
    <glyph glyph-name="iacute" unicode="&#xed;" 
 />
    <glyph glyph-name="icircumflex" unicode="&#xee;" 
 />
    <glyph glyph-name="idieresis" unicode="&#xef;" 
 />
    <glyph glyph-name="eth" unicode="&#xf0;" 
 />
    <glyph glyph-name="ntilde" unicode="&#xf1;" 
 />
    <glyph glyph-name="ograve" unicode="&#xf2;" 
 />
    <glyph glyph-name="oacute" unicode="&#xf3;" 
 />
    <glyph glyph-name="ocircumflex" unicode="&#xf4;" 
 />
    <glyph glyph-name="otilde" unicode="&#xf5;" 
 />
    <glyph glyph-name="odieresis" unicode="&#xf6;" 
 />
    <glyph glyph-name="divide" unicode="&#xf7;" 
 />
    <glyph glyph-name="oslash" unicode="&#xf8;" 
 />
    <glyph glyph-name="ugrave" unicode="&#xf9;" 
 />
    <glyph glyph-name="uacute" unicode="&#xfa;" 
 />
    <glyph glyph-name="ucircumflex" unicode="&#xfb;" 
 />
    <glyph glyph-name="udieresis" unicode="&#xfc;" 
 />
    <glyph glyph-name="yacute" unicode="&#xfd;" 
 />
    <glyph glyph-name="thorn" unicode="&#xfe;" 
 />
    <glyph glyph-name="ydieresis" unicode="&#xff;" 
 />
    <glyph glyph-name="OE" unicode="&#x152;" 
 />
    <glyph glyph-name="oe" unicode="&#x153;" 
 />
    <glyph glyph-name="Scaron" unicode="&#x160;" 
 />
    <glyph glyph-name="scaron" unicode="&#x161;" 
 />
    <glyph glyph-name="Ydieresis" unicode="&#x178;" 
 />
    <glyph glyph-name="Zcaron" unicode="&#x17d;" 
 />
    <glyph glyph-name="zcaron" unicode="&#x17e;" 
 />
    <glyph glyph-name="florin" unicode="&#x192;" 
 />
    <glyph glyph-name="circumflex" unicode="&#x2c6;" 
 />
    <glyph glyph-name="tilde" unicode="&#x2dc;" 
 />
    <glyph glyph-name="endash" unicode="&#x2013;" 
 />
    <glyph glyph-name="emdash" unicode="&#x2014;" 
 />
    <glyph glyph-name="quoteleft" unicode="&#x2018;" 
 />
    <glyph glyph-name="quoteright" unicode="&#x2019;" 
 />
    <glyph glyph-name="quotesinglbase" unicode="&#x201a;" 
 />
    <glyph glyph-name="quotedblleft" unicode="&#x201c;" 
 />
    <glyph glyph-name="quotedblright" unicode="&#x201d;" 
 />
    <glyph glyph-name="quotedblbase" unicode="&#x201e;" 
 />
    <glyph glyph-name="dagger" unicode="&#x2020;" 
 />
    <glyph glyph-name="daggerdbl" unicode="&#x2021;" 
 />
    <glyph glyph-name="bullet" unicode="&#x2022;" 
 />
    <glyph glyph-name="ellipsis" unicode="&#x2026;" 
 />
    <glyph glyph-name="perthousand" unicode="&#x2030;" 
 />
    <glyph glyph-name="guilsinglleft" unicode="&#x2039;" 
 />
    <glyph glyph-name="guilsinglright" unicode="&#x203a;" 
 />
    <glyph glyph-name="Euro" unicode="&#x20ac;" 
 />
    <glyph glyph-name="trademark" unicode="&#x2122;" 
 />
    <glyph glyph-name="uni2219" unicode="&#x2219;" 
 />
    <glyph glyph-name="glyph1" horiz-adv-x="0" 
 />
  </font>
</defs>
</svg>
